STARTFONT 2.1
COMMENT
COMMENT Converted from OpenType font "Xuong.otf" by "otf2bdf 3.0".
COMMENT
FONT -FreeType-Xuong-Bold-R-Normal--28-200-100-100-P-136-ISO10646-1
SIZE 20 100 100
FONTBOUNDINGBOX 29 35 -2 -5
STARTPROPERTIES 19
FOUNDRY "FreeType"
FAMILY_NAME "Xuong"
WEIGHT_NAME "Bold"
SLANT "R"
SETWIDTH_NAME "Normal"
ADD_STYLE_NAME ""
PIXEL_SIZE 28
POINT_SIZE 200
RESOLUTION_X 100
RESOLUTION_Y 100
SPACING "P"
AVERAGE_WIDTH 136
CHARSET_REGISTRY "ISO10646"
CHARSET_ENCODING "1"
FONT_ASCENT 25
FONT_DESCENT 5
COPYRIGHT "-FreeType-Xuong-Bold-R-Normal--28-200-100-100-P-136-ISO10646-1"
_OTF_FONTFILE "Xuong.otf"
_OTF_PSNAME "Xuong"
ENDPROPERTIES
CHARS 445
STARTCHAR 0000
ENCODING 0
SWIDTH 0 0
DWIDTH 0 0
BBX 0 0 0 0
BITMAP
ENDCHAR
STARTCHAR 000D
ENCODING 13
SWIDTH 216 0
DWIDTH 6 0
BBX 0 0 0 0
BITMAP
ENDCHAR
STARTCHAR 0020
ENCODING 32
SWIDTH 216 0
DWIDTH 6 0
BBX 0 0 0 0
BITMAP
ENDCHAR
STARTCHAR 0021
ENCODING 33
SWIDTH 144 0
DWIDTH 4 0
BBX 3 19 1 0
BITMAP
E0
E0
E0
E0
E0
E0
E0
E0
E0
E0
E0
E0
C0
C0
00
00
E0
E0
E0
ENDCHAR
STARTCHAR 0022
ENCODING 34
SWIDTH 252 0
DWIDTH 7 0
BBX 7 7 0 12
BITMAP
EE
EE
EE
6E
6E
66
64
ENDCHAR
STARTCHAR 0023
ENCODING 35
SWIDTH 720 0
DWIDTH 20 0
BBX 20 19 0 0
BITMAP
00E380
00E380
00C300
01C700
01C700
3FFFF0
3FFFF0
3FFFF0
038E00
038E00
071C00
FFFFC0
FFFFC0
061800
0E3800
0E3800
0E3800
0C7000
1C7000
ENDCHAR
STARTCHAR 0024
ENCODING 36
SWIDTH 540 0
DWIDTH 15 0
BBX 13 25 1 -3
BITMAP
0700
0700
0700
FFE0
FFF0
FFF8
FFF8
F878
FC00
7E00
3F00
1F80
0FC0
07E0
03F0
01F8
00F8
F078
FFF8
7FF8
7FF8
3FF8
0700
0700
0700
ENDCHAR
STARTCHAR 0025
ENCODING 37
SWIDTH 612 0
DWIDTH 17 0
BBX 15 19 1 0
BITMAP
FE38
FE38
CE70
CE70
FEE0
FCE0
01C0
01C0
0380
0380
0780
0700
077C
0EFE
0EFE
1CE6
1CE6
38FE
387E
ENDCHAR
STARTCHAR 0026
ENCODING 38
SWIDTH 684 0
DWIDTH 19 0
BBX 18 19 1 0
BITMAP
1FF000
3FF800
3FFC00
3FFC00
3C3C00
3C3C00
3C7C00
7FF800
FFF000
F8F180
F07BC0
F07FC0
F03FC0
F03F80
F8FF00
FFFF00
7FFF80
7FF7C0
3FC3C0
ENDCHAR
STARTCHAR 0027
ENCODING 39
SWIDTH 108 0
DWIDTH 3 0
BBX 3 7 0 12
BITMAP
E0
E0
E0
60
60
60
60
ENDCHAR
STARTCHAR 0028
ENCODING 40
SWIDTH 216 0
DWIDTH 6 0
BBX 5 22 1 -1
BITMAP
18
38
70
70
E0
E0
C0
C0
C0
C0
C0
C0
C0
C0
C0
C0
C0
E0
F0
70
38
38
ENDCHAR
STARTCHAR 0029
ENCODING 41
SWIDTH 216 0
DWIDTH 6 0
BBX 5 22 0 -1
BITMAP
E0
E0
70
70
38
38
18
18
18
18
18
18
18
18
18
18
18
38
38
70
E0
E0
ENDCHAR
STARTCHAR 002A
ENCODING 42
SWIDTH 396 0
DWIDTH 11 0
BBX 9 9 1 10
BITMAP
1C00
5D80
FF80
FF80
3E00
FF80
FF80
5D00
1C00
ENDCHAR
STARTCHAR 002B
ENCODING 43
SWIDTH 396 0
DWIDTH 11 0
BBX 10 11 1 4
BITMAP
0C00
0C00
0C00
0C00
FFC0
FFC0
FFC0
0C00
0C00
0C00
0C00
ENDCHAR
STARTCHAR 002C
ENCODING 44
SWIDTH 180 0
DWIDTH 5 0
BBX 5 7 -1 -3
BITMAP
38
38
38
38
38
70
E0
ENDCHAR
STARTCHAR 002D
ENCODING 45
SWIDTH 396 0
DWIDTH 11 0
BBX 10 2 1 10
BITMAP
FFC0
FFC0
ENDCHAR
STARTCHAR 002E
ENCODING 46
SWIDTH 144 0
DWIDTH 4 0
BBX 3 3 1 0
BITMAP
E0
E0
E0
ENDCHAR
STARTCHAR 002F
ENCODING 47
SWIDTH 252 0
DWIDTH 7 0
BBX 9 22 -1 -1
BITMAP
0380
0380
0300
0700
0700
0700
0E00
0E00
0E00
0E00
1C00
1C00
1C00
1C00
3800
3800
3800
3000
7000
7000
7000
E000
ENDCHAR
STARTCHAR 0030
ENCODING 48
SWIDTH 576 0
DWIDTH 16 0
BBX 14 19 1 0
BITMAP
3FF0
7FF8
FFFC
FFFC
F87C
F03C
F03C
F03C
F03C
F03C
F03C
F03C
F03C
F03C
F87C
FFFC
7FFC
7FF8
3FF0
ENDCHAR
STARTCHAR 0031
ENCODING 49
SWIDTH 396 0
DWIDTH 11 0
BBX 9 19 1 0
BITMAP
0F80
3F80
7F80
FF80
FF80
FF80
E780
C780
0780
0780
0780
0780
0780
0780
0780
0780
0780
0780
0780
ENDCHAR
STARTCHAR 0032
ENCODING 50
SWIDTH 540 0
DWIDTH 15 0
BBX 13 19 1 0
BITMAP
3FF8
7FF8
FFF8
FFF8
F878
0078
00F8
01F8
03F0
07E0
0FC0
1F80
3F00
7E00
FC00
FFF8
FFF8
FFF8
FFF8
ENDCHAR
STARTCHAR 0033
ENCODING 51
SWIDTH 504 0
DWIDTH 14 0
BBX 12 19 1 0
BITMAP
FFF0
7FF0
7FF0
3FF0
00F0
00F0
00F0
1FF0
1FF0
1FF0
1FF0
00F0
00F0
00F0
00F0
3FF0
7FF0
FFF0
FFF0
ENDCHAR
STARTCHAR 0034
ENCODING 52
SWIDTH 576 0
DWIDTH 16 0
BBX 14 19 1 0
BITMAP
03F0
07F0
0FF0
0FF0
1FF0
1FF0
3EF0
7CF0
7CF0
F8F0
F8F0
FFFC
FFFC
FFFC
FFFC
00F0
00F0
00F0
00F0
ENDCHAR
STARTCHAR 0035
ENCODING 53
SWIDTH 504 0
DWIDTH 14 0
BBX 12 19 1 0
BITMAP
FFF0
FFF0
FFE0
FFC0
F000
F000
F000
FFF0
FFF0
FFF0
FFF0
00F0
00F0
00F0
00F0
3FF0
7FF0
FFF0
FFF0
ENDCHAR
STARTCHAR 0036
ENCODING 54
SWIDTH 540 0
DWIDTH 15 0
BBX 13 19 1 0
BITMAP
FFE0
FFF0
FFF8
FFF8
F078
F038
F000
F000
FFF8
FFF8
FFF8
FFF8
F8F8
F078
F8F8
FFF8
FFF8
FFF8
FFF8
ENDCHAR
STARTCHAR 0037
ENCODING 55
SWIDTH 468 0
DWIDTH 13 0
BBX 12 19 0 0
BITMAP
FFF0
7FF0
3FF0
3FF0
01F0
01F0
03E0
03E0
03E0
07C0
07C0
07C0
07C0
0F80
0F80
0F80
1F00
1F00
1F00
ENDCHAR
STARTCHAR 0038
ENCODING 56
SWIDTH 576 0
DWIDTH 16 0
BBX 14 19 1 0
BITMAP
3FF8
7FF8
FFFC
FFFC
F87C
F03C
F03C
F87C
7FFC
7FF8
FC7C
F83C
F03C
F03C
F87C
FFFC
7FFC
7FF8
3FF0
ENDCHAR
STARTCHAR 0039
ENCODING 57
SWIDTH 540 0
DWIDTH 15 0
BBX 13 19 1 0
BITMAP
FFF8
FFF8
FFF8
FFF8
F8F8
F078
F8F8
FFF8
FFF8
FFF8
0078
0078
0078
F078
F878
FFF8
7FF8
7FF8
3FF8
ENDCHAR
STARTCHAR 003A
ENCODING 58
SWIDTH 144 0
DWIDTH 4 0
BBX 3 14 1 0
BITMAP
E0
E0
E0
00
00
00
00
00
00
00
00
E0
E0
E0
ENDCHAR
STARTCHAR 003B
ENCODING 59
SWIDTH 144 0
DWIDTH 4 0
BBX 5 17 -1 -3
BITMAP
38
38
38
00
00
00
00
00
00
00
38
38
38
38
70
70
E0
ENDCHAR
STARTCHAR 003C
ENCODING 60
SWIDTH 360 0
DWIDTH 10 0
BBX 9 14 1 4
BITMAP
0080
0380
0F80
3F80
FE00
F800
E000
C000
F000
FC00
3F00
1F80
0780
0180
ENDCHAR
STARTCHAR 003D
ENCODING 61
SWIDTH 396 0
DWIDTH 11 0
BBX 10 7 1 6
BITMAP
FFC0
FFC0
FFC0
0000
FFC0
FFC0
FFC0
ENDCHAR
STARTCHAR 003E
ENCODING 62
SWIDTH 360 0
DWIDTH 10 0
BBX 9 14 1 4
BITMAP
8000
E000
F800
FE00
3F80
0F80
0380
0180
0780
1F80
7E00
FC00
F000
C000
ENDCHAR
STARTCHAR 003F
ENCODING 63
SWIDTH 504 0
DWIDTH 14 0
BBX 13 19 1 0
BITMAP
3FF8
7FF8
FFF8
FFF8
F0F8
00F8
01F0
01E0
03E0
03C0
0780
0780
0780
0780
0000
0000
0780
0780
0780
ENDCHAR
STARTCHAR 0040
ENCODING 64
SWIDTH 792 0
DWIDTH 22 0
BBX 20 22 1 -3
BITMAP
FFFFF0
FFFFF0
FFFFF0
E00070
E1F870
E1F870
E1F870
E19C70
E39C70
E39C70
E39C70
E38C70
E39E70
E7FE70
E7FE70
E70FF0
E70FF0
E707E0
E00000
FFF000
FFF800
FFF800
ENDCHAR
STARTCHAR 0041
ENCODING 65
SWIDTH 576 0
DWIDTH 16 0
BBX 16 19 0 0
BITMAP
0FF0
0FF8
0FF8
1FF8
1E78
1E38
1E3C
1C3C
3C3C
3C3C
3C3C
3C3E
3FFE
7FFE
7BFE
781E
781F
781F
F80F
ENDCHAR
STARTCHAR 0042
ENCODING 66
SWIDTH 576 0
DWIDTH 16 0
BBX 14 19 1 0
BITMAP
FFF0
FFF8
FFFC
F07C
F03C
F03C
F03C
FFFC
FFF8
FFF8
FFFC
F07C
F03C
F03C
F03C
FFFC
FFFC
FFF8
FFF0
ENDCHAR
STARTCHAR 0043
ENCODING 67
SWIDTH 540 0
DWIDTH 15 0
BBX 13 19 1 0
BITMAP
FFF0
FFF0
FFF8
FFF8
F078
F000
F000
F000
F000
F000
F000
F000
F000
F000
F0F8
FFF8
FFF8
FFF0
FFE0
ENDCHAR
STARTCHAR 0044
ENCODING 68
SWIDTH 576 0
DWIDTH 16 0
BBX 14 19 1 0
BITMAP
FFF0
FFF8
FFFC
FFFC
F07C
F03C
F03C
F03C
F03C
F03C
F03C
F03C
F03C
F03C
F07C
FFFC
FFFC
FFF8
FFF0
ENDCHAR
STARTCHAR 0045
ENCODING 69
SWIDTH 540 0
DWIDTH 15 0
BBX 13 19 1 0
BITMAP
FFE0
FFF0
FFF8
FFF8
F078
F000
F000
F000
FFC0
FFC0
FFC0
F000
F000
F000
F078
FFF8
FFF8
FFF0
FFE0
ENDCHAR
STARTCHAR 0046
ENCODING 70
SWIDTH 504 0
DWIDTH 14 0
BBX 12 19 1 0
BITMAP
FFE0
FFF0
FFF0
FFF0
F070
F000
F000
F000
FFE0
FFE0
FFE0
FFE0
F000
F000
F000
F000
F000
F000
F000
ENDCHAR
STARTCHAR 0047
ENCODING 71
SWIDTH 540 0
DWIDTH 15 0
BBX 13 19 1 0
BITMAP
FFF0
FFF0
FFF8
FFF8
F078
F000
F000
F000
F1F8
F1F8
F1F8
F1F8
F078
F078
F078
FFF8
FFF8
FFF8
FFD8
ENDCHAR
STARTCHAR 0048
ENCODING 72
SWIDTH 576 0
DWIDTH 16 0
BBX 14 19 1 0
BITMAP
F03C
F03C
F03C
F03C
F03C
F03C
F87C
FFFC
FFFC
FFFC
FFFC
F87C
F03C
F03C
F03C
F03C
F03C
F03C
F03C
ENDCHAR
STARTCHAR 0049
ENCODING 73
SWIDTH 216 0
DWIDTH 6 0
BBX 4 19 1 0
BITMAP
F0
F0
F0
F0
F0
F0
F0
F0
F0
F0
F0
F0
F0
F0
F0
F0
F0
F0
F0
ENDCHAR
STARTCHAR 004A
ENCODING 74
SWIDTH 504 0
DWIDTH 14 0
BBX 12 19 1 0
BITMAP
3FF0
3FF0
3FF0
3FF0
00F0
00F0
00F0
00F0
00F0
00F0
00F0
00F0
00F0
00F0
F8F0
FFF0
7FF0
7FF0
3FF0
ENDCHAR
STARTCHAR 004B
ENCODING 75
SWIDTH 540 0
DWIDTH 15 0
BBX 14 19 1 0
BITMAP
F07C
F0FC
F0F8
F1F8
F3F0
F3E0
F7C0
FFC0
FF80
FF00
FF80
F7C0
F7E0
F3E0
F1F0
F1F8
F0FC
F07C
F07C
ENDCHAR
STARTCHAR 004C
ENCODING 76
SWIDTH 396 0
DWIDTH 11 0
BBX 11 19 1 0
BITMAP
F000
F000
F000
F000
F000
F000
F000
F000
F000
F000
F000
F000
F000
F000
F800
FFE0
FFC0
FF80
FF80
ENDCHAR
STARTCHAR 004D
ENCODING 77
SWIDTH 684 0
DWIDTH 19 0
BBX 17 19 1 0
BITMAP
3E3F00
7E3F00
FE3F80
FF3F80
FF3F80
FF7F80
F77780
F77780
F37780
F37780
F3E780
F3E780
F3E780
F3E780
F00780
F00780
F00780
F00780
F00780
ENDCHAR
STARTCHAR 004E
ENCODING 78
SWIDTH 540 0
DWIDTH 15 0
BBX 14 19 1 0
BITMAP
387C
787C
FC7C
FC7C
FE7C
FE7C
FF7C
FF7C
FF7C
F7FC
F3FC
F3FC
F1FC
F1FC
F1FC
F0FC
F0F8
F078
F070
ENDCHAR
STARTCHAR 004F
ENCODING 79
SWIDTH 612 0
DWIDTH 17 0
BBX 15 19 1 0
BITMAP
3FFC
7FFC
FFFE
FFFE
F81E
F01E
F01E
F01E
F01E
F01E
F01E
F01E
F01E
F01E
F83E
FFFE
7FFE
7FFC
3FF8
ENDCHAR
STARTCHAR 0050
ENCODING 80
SWIDTH 540 0
DWIDTH 15 0
BBX 13 19 1 0
BITMAP
FFE0
FFF0
FFF8
FFF8
F0F8
F078
F078
F078
FFF8
FFF8
FFF0
FFF0
FFE0
F000
F000
F000
F000
F000
F000
ENDCHAR
STARTCHAR 0051
ENCODING 81
SWIDTH 648 0
DWIDTH 18 0
BBX 17 19 1 0
BITMAP
3FFC00
7FFC00
FFFE00
FFFE00
F81E00
F01E00
F01E00
F01E00
F01E00
F01E00
F01E00
F01E00
F01E00
F01E00
F83F00
FFFF80
7FFF80
7FFF80
3FFB00
ENDCHAR
STARTCHAR 0052
ENCODING 82
SWIDTH 540 0
DWIDTH 15 0
BBX 13 19 1 0
BITMAP
FFE0
FFF0
FFF8
FFF8
F0F8
F078
F078
FFF8
FFF0
FFE0
FFE0
FFE0
F1F0
F1F0
F0F0
F0F8
F0F8
F078
F078
ENDCHAR
STARTCHAR 0053
ENCODING 83
SWIDTH 540 0
DWIDTH 15 0
BBX 13 19 1 0
BITMAP
FFE0
FFF0
FFF8
FFF8
F878
FC00
7E00
3F00
1F80
0FC0
07E0
03F0
01F8
00F8
F078
FFF8
7FF8
7FF8
3FF8
ENDCHAR
STARTCHAR 0054
ENCODING 84
SWIDTH 504 0
DWIDTH 14 0
BBX 15 19 0 0
BITMAP
3FF8
7FFC
FFFE
FFFE
E7DE
07C0
07C0
07C0
07C0
07C0
07C0
07C0
07C0
07C0
07C0
07C0
07C0
07C0
07C0
ENDCHAR
STARTCHAR 0055
ENCODING 85
SWIDTH 612 0
DWIDTH 17 0
BBX 15 19 1 0
BITMAP
F01E
F01E
F01E
F01E
F01E
F01E
F01E
F01E
F01E
F01E
F01E
F01E
F01E
F01E
F83E
FFFE
7FFE
7FFC
3FF8
ENDCHAR
STARTCHAR 0056
ENCODING 86
SWIDTH 576 0
DWIDTH 16 0
BBX 16 19 0 0
BITMAP
F81F
781E
781E
781E
781E
781E
3C3C
3C3C
3C3C
3C3C
3C3C
1C38
1C38
1E78
1E78
1FF8
0FF0
0FF0
0FF0
ENDCHAR
STARTCHAR 0057
ENCODING 87
SWIDTH 864 0
DWIDTH 24 0
BBX 22 19 1 0
BITMAP
F8003C
F8003C
F8003C
F8007C
78007C
7C787C
7C7C78
7C7C78
3CFC78
3CEEF8
3CEEF8
3EEEF0
3FEFF0
1FCFF0
1FC7F0
1FC7F0
1FC7E0
1FC7E0
0F87E0
ENDCHAR
STARTCHAR 0058
ENCODING 88
SWIDTH 612 0
DWIDTH 17 0
BBX 15 19 1 0
BITMAP
F83E
F83E
FC3E
7C7C
7C7C
3EF8
3EF8
1FF0
1FF0
1FF0
1FF0
3EF8
3EF8
3EFC
7C7C
7C7C
F83E
F83E
F01E
ENDCHAR
STARTCHAR 0059
ENCODING 89
SWIDTH 468 0
DWIDTH 13 0
BBX 13 19 0 0
BITMAP
F078
F8F8
F8F8
78F0
7DF0
3DE0
3DE0
1FC0
1FC0
0FC0
0F80
0F80
0F80
0F80
0F80
0F80
0F80
0F80
0F80
ENDCHAR
STARTCHAR 005A
ENCODING 90
SWIDTH 540 0
DWIDTH 15 0
BBX 14 19 1 0
BITMAP
FFF0
FFF8
FFFC
7FF8
01F8
03F0
03E0
07E0
07C0
0F80
1F80
1F00
3F00
3E00
7C00
FFFC
7FFC
7FFC
3FFC
ENDCHAR
STARTCHAR 005B
ENCODING 91
SWIDTH 216 0
DWIDTH 6 0
BBX 5 22 1 -1
BITMAP
F8
F8
F8
C0
C0
C0
C0
C0
C0
C0
C0
C0
C0
C0
C0
C0
C0
C0
C0
C0
F8
F8
ENDCHAR
STARTCHAR 005C
ENCODING 92
SWIDTH 252 0
DWIDTH 7 0
BBX 9 22 -1 -1
BITMAP
E000
6000
7000
7000
7000
3800
3800
3800
3800
1C00
1C00
1C00
1C00
0E00
0E00
0E00
0600
0700
0700
0700
0380
0380
ENDCHAR
STARTCHAR 005D
ENCODING 93
SWIDTH 216 0
DWIDTH 6 0
BBX 5 22 1 -1
BITMAP
F8
F8
F8
38
38
38
38
38
38
38
38
38
38
38
38
38
38
38
38
38
F8
F8
ENDCHAR
STARTCHAR 005E
ENCODING 94
SWIDTH 576 0
DWIDTH 16 0
BBX 14 9 1 10
BITMAP
0FC0
0FE0
1EE0
1CF0
3C70
3878
7838
703C
F01C
ENDCHAR
STARTCHAR 005F
ENCODING 95
SWIDTH 396 0
DWIDTH 11 0
BBX 10 3 1 0
BITMAP
FFC0
FFC0
FFC0
ENDCHAR
STARTCHAR 0060
ENCODING 96
SWIDTH 396 0
DWIDTH 11 0
BBX 10 2 1 20
BITMAP
FC00
FFC0
ENDCHAR
STARTCHAR 0061
ENCODING 97
SWIDTH 576 0
DWIDTH 16 0
BBX 16 19 0 0
BITMAP
0FF0
0FF8
0FF8
1FF8
1E78
1E38
1E3C
1C3C
3C3C
3C3C
3C3C
3C3E
3FFE
7FFE
7BFE
781E
781F
781F
F80F
ENDCHAR
STARTCHAR 0062
ENCODING 98
SWIDTH 576 0
DWIDTH 16 0
BBX 14 19 1 0
BITMAP
FFF0
FFF8
FFFC
F07C
F03C
F03C
F03C
FFFC
FFF8
FFF8
FFFC
F07C
F03C
F03C
F03C
FFFC
FFFC
FFF8
FFF0
ENDCHAR
STARTCHAR 0063
ENCODING 99
SWIDTH 540 0
DWIDTH 15 0
BBX 13 19 1 0
BITMAP
FFF0
FFF0
FFF8
FFF8
F078
F000
F000
F000
F000
F000
F000
F000
F000
F000
F0F8
FFF8
FFF8
FFF0
FFE0
ENDCHAR
STARTCHAR 0064
ENCODING 100
SWIDTH 576 0
DWIDTH 16 0
BBX 14 19 1 0
BITMAP
FFF0
FFF8
FFFC
FFFC
F07C
F03C
F03C
F03C
F03C
F03C
F03C
F03C
F03C
F03C
F07C
FFFC
FFFC
FFF8
FFF0
ENDCHAR
STARTCHAR 0065
ENCODING 101
SWIDTH 540 0
DWIDTH 15 0
BBX 13 19 1 0
BITMAP
FFE0
FFF0
FFF8
FFF8
F078
F000
F000
F000
FFC0
FFC0
FFC0
F000
F000
F000
F078
FFF8
FFF8
FFF0
FFE0
ENDCHAR
STARTCHAR 0066
ENCODING 102
SWIDTH 504 0
DWIDTH 14 0
BBX 12 19 1 0
BITMAP
FFE0
FFF0
FFF0
FFF0
F070
F000
F000
F000
FFE0
FFE0
FFE0
FFE0
F000
F000
F000
F000
F000
F000
F000
ENDCHAR
STARTCHAR 0067
ENCODING 103
SWIDTH 540 0
DWIDTH 15 0
BBX 13 19 1 0
BITMAP
FFF0
FFF0
FFF8
FFF8
F078
F000
F000
F000
F1F8
F1F8
F1F8
F1F8
F078
F078
F078
FFF8
FFF8
FFF8
FFD8
ENDCHAR
STARTCHAR 0068
ENCODING 104
SWIDTH 576 0
DWIDTH 16 0
BBX 14 19 1 0
BITMAP
F03C
F03C
F03C
F03C
F03C
F03C
F87C
FFFC
FFFC
FFFC
FFFC
F87C
F03C
F03C
F03C
F03C
F03C
F03C
F03C
ENDCHAR
STARTCHAR 0069
ENCODING 105
SWIDTH 216 0
DWIDTH 6 0
BBX 4 19 1 0
BITMAP
F0
F0
F0
F0
F0
F0
F0
F0
F0
F0
F0
F0
F0
F0
F0
F0
F0
F0
F0
ENDCHAR
STARTCHAR 006A
ENCODING 106
SWIDTH 504 0
DWIDTH 14 0
BBX 12 19 1 0
BITMAP
3FF0
3FF0
3FF0
3FF0
00F0
00F0
00F0
00F0
00F0
00F0
00F0
00F0
00F0
00F0
F8F0
FFF0
7FF0
7FF0
3FF0
ENDCHAR
STARTCHAR 006B
ENCODING 107
SWIDTH 540 0
DWIDTH 15 0
BBX 14 19 1 0
BITMAP
F07C
F0FC
F0F8
F1F8
F3F0
F3E0
F7C0
FFC0
FF80
FF00
FF80
F7C0
F7E0
F3E0
F1F0
F1F8
F0FC
F07C
F07C
ENDCHAR
STARTCHAR 006C
ENCODING 108
SWIDTH 396 0
DWIDTH 11 0
BBX 11 19 1 0
BITMAP
F000
F000
F000
F000
F000
F000
F000
F000
F000
F000
F000
F000
F000
F000
F800
FFE0
FFC0
FF80
FF80
ENDCHAR
STARTCHAR 006D
ENCODING 109
SWIDTH 684 0
DWIDTH 19 0
BBX 17 19 1 0
BITMAP
3E3F00
7E3F00
FE3F80
FF3F80
FF3F80
FF7F80
F77780
F77780
F37780
F37780
F3E780
F3E780
F3E780
F3E780
F00780
F00780
F00780
F00780
F00780
ENDCHAR
STARTCHAR 006E
ENCODING 110
SWIDTH 540 0
DWIDTH 15 0
BBX 14 19 1 0
BITMAP
387C
787C
FC7C
FC7C
FE7C
FE7C
FF7C
FF7C
FF7C
F7FC
F3FC
F3FC
F1FC
F1FC
F1FC
F0FC
F0F8
F078
F070
ENDCHAR
STARTCHAR 006F
ENCODING 111
SWIDTH 612 0
DWIDTH 17 0
BBX 15 19 1 0
BITMAP
3FFC
7FFC
FFFE
FFFE
F81E
F01E
F01E
F01E
F01E
F01E
F01E
F01E
F01E
F01E
F83E
FFFE
7FFE
7FFC
3FF8
ENDCHAR
STARTCHAR 0070
ENCODING 112
SWIDTH 540 0
DWIDTH 15 0
BBX 13 19 1 0
BITMAP
FFE0
FFF0
FFF8
FFF8
F0F8
F078
F078
F078
FFF8
FFF8
FFF0
FFF0
FFE0
F000
F000
F000
F000
F000
F000
ENDCHAR
STARTCHAR 0071
ENCODING 113
SWIDTH 648 0
DWIDTH 18 0
BBX 17 19 1 0
BITMAP
3FFC00
7FFC00
FFFE00
FFFE00
F81E00
F01E00
F01E00
F01E00
F01E00
F01E00
F01E00
F01E00
F01E00
F01E00
F83F00
FFFF80
7FFF80
7FFF80
3FFB00
ENDCHAR
STARTCHAR 0072
ENCODING 114
SWIDTH 540 0
DWIDTH 15 0
BBX 13 19 1 0
BITMAP
FFE0
FFF0
FFF8
FFF8
F0F8
F078
F078
FFF8
FFF0
FFE0
FFE0
FFE0
F1F0
F1F0
F0F0
F0F8
F0F8
F078
F078
ENDCHAR
STARTCHAR 0073
ENCODING 115
SWIDTH 540 0
DWIDTH 15 0
BBX 13 19 1 0
BITMAP
FFE0
FFF0
FFF8
FFF8
F878
FC00
7E00
3F00
1F80
0FC0
07E0
03F0
01F8
00F8
F078
FFF8
7FF8
7FF8
3FF8
ENDCHAR
STARTCHAR 0074
ENCODING 116
SWIDTH 504 0
DWIDTH 14 0
BBX 15 19 0 0
BITMAP
3FF8
7FFC
FFFE
FFFE
E7DE
07C0
07C0
07C0
07C0
07C0
07C0
07C0
07C0
07C0
07C0
07C0
07C0
07C0
07C0
ENDCHAR
STARTCHAR 0075
ENCODING 117
SWIDTH 612 0
DWIDTH 17 0
BBX 15 19 1 0
BITMAP
F01E
F01E
F01E
F01E
F01E
F01E
F01E
F01E
F01E
F01E
F01E
F01E
F01E
F01E
F83E
FFFE
7FFE
7FFC
3FF8
ENDCHAR
STARTCHAR 0076
ENCODING 118
SWIDTH 576 0
DWIDTH 16 0
BBX 16 19 0 0
BITMAP
F81F
781E
781E
781E
781E
781E
3C3C
3C3C
3C3C
3C3C
3C3C
1C38
1C38
1E78
1E78
1FF8
0FF0
0FF0
0FF0
ENDCHAR
STARTCHAR 0077
ENCODING 119
SWIDTH 864 0
DWIDTH 24 0
BBX 22 19 1 0
BITMAP
F8003C
F8003C
F8003C
F8007C
78007C
7C787C
7C7C78
7C7C78
3CFC78
3CEEF8
3CEEF8
3EEEF0
3FEFF0
1FCFF0
1FC7F0
1FC7F0
1FC7E0
1FC7E0
0F87E0
ENDCHAR
STARTCHAR 0078
ENCODING 120
SWIDTH 612 0
DWIDTH 17 0
BBX 15 19 1 0
BITMAP
F83E
F83E
FC3E
7C7C
7C7C
3EF8
3EF8
1FF0
1FF0
1FF0
1FF0
3EF8
3EF8
3EFC
7C7C
7C7C
F83E
F83E
F01E
ENDCHAR
STARTCHAR 0079
ENCODING 121
SWIDTH 468 0
DWIDTH 13 0
BBX 13 19 0 0
BITMAP
F078
F8F8
F8F8
78F0
7DF0
3DE0
3DE0
1FC0
1FC0
0FC0
0F80
0F80
0F80
0F80
0F80
0F80
0F80
0F80
0F80
ENDCHAR
STARTCHAR 007A
ENCODING 122
SWIDTH 540 0
DWIDTH 15 0
BBX 14 19 1 0
BITMAP
FFF0
FFF8
FFFC
7FF8
01F8
03F0
03E0
07E0
07C0
0F80
1F80
1F00
3F00
3E00
7C00
FFFC
7FFC
7FFC
3FFC
ENDCHAR
STARTCHAR 007B
ENCODING 123
SWIDTH 288 0
DWIDTH 8 0
BBX 7 22 1 -1
BITMAP
7E
7E
7C
70
70
70
70
70
70
70
E0
C0
E0
70
70
70
70
70
70
70
7C
7E
ENDCHAR
STARTCHAR 007C
ENCODING 124
SWIDTH 108 0
DWIDTH 3 0
BBX 2 22 1 -1
BITMAP
C0
C0
C0
C0
C0
C0
C0
C0
C0
C0
C0
C0
C0
C0
C0
C0
C0
C0
C0
C0
C0
C0
ENDCHAR
STARTCHAR 007D
ENCODING 125
SWIDTH 288 0
DWIDTH 8 0
BBX 7 22 1 -1
BITMAP
F8
F8
F8
38
38
38
38
38
38
38
1E
0E
1C
38
38
38
38
38
38
38
F8
F8
ENDCHAR
STARTCHAR 007E
ENCODING 126
SWIDTH 432 0
DWIDTH 12 0
BBX 11 4 1 8
BITMAP
1000
7E20
FFE0
C3C0
ENDCHAR
STARTCHAR 00A1
ENCODING 161
SWIDTH 144 0
DWIDTH 4 0
BBX 3 19 1 0
BITMAP
E0
E0
E0
00
40
C0
E0
E0
E0
E0
E0
E0
E0
E0
E0
E0
E0
E0
E0
ENDCHAR
STARTCHAR 00A2
ENCODING 162
SWIDTH 540 0
DWIDTH 15 0
BBX 13 25 1 -3
BITMAP
0700
0700
0700
FFF0
FFF0
FFF8
FFF8
F078
F000
F000
F000
F000
F000
F000
F000
F000
F000
F0F8
FFF8
FFF8
FFF0
FFE0
0700
0700
0700
ENDCHAR
STARTCHAR 00A3
ENCODING 163
SWIDTH 468 0
DWIDTH 13 0
BBX 12 19 1 0
BITMAP
FFF0
FFF0
FFF0
FFF0
F8F0
7800
7800
FFF0
FFF0
FFF0
3E00
3E00
3C00
7C00
F800
FFF0
FFF0
FFF0
FFF0
ENDCHAR
STARTCHAR 00A4
ENCODING 164
SWIDTH 324 0
DWIDTH 9 0
BBX 7 8 1 6
BITMAP
82
FE
7E
66
66
7E
FE
82
ENDCHAR
STARTCHAR 00A5
ENCODING 165
SWIDTH 468 0
DWIDTH 13 0
BBX 13 19 0 0
BITMAP
F078
F8F8
F8F8
78F0
7DF0
3DE0
3DE0
1FC0
1FC0
7FF0
7FF0
7FF0
0F80
7FF0
7FF0
7FF0
0F80
0F80
0F80
ENDCHAR
STARTCHAR 00A6
ENCODING 166
SWIDTH 108 0
DWIDTH 3 0
BBX 2 22 1 -1
BITMAP
C0
C0
C0
C0
C0
C0
C0
C0
C0
C0
00
00
C0
C0
C0
C0
C0
C0
C0
C0
C0
C0
ENDCHAR
STARTCHAR 00A7
ENCODING 167
SWIDTH 432 0
DWIDTH 12 0
BBX 10 19 1 0
BITMAP
7F80
7FC0
7FC0
7800
7C00
FE00
FE00
FF00
E780
F3C0
7FC0
3FC0
1FC0
0F00
0780
E380
FF80
7F80
7F80
ENDCHAR
STARTCHAR 00A8
ENCODING 168
SWIDTH 288 0
DWIDTH 8 0
BBX 7 3 1 20
BITMAP
CE
CE
CE
ENDCHAR
STARTCHAR 00A9
ENCODING 169
SWIDTH 720 0
DWIDTH 20 0
BBX 19 22 1 -1
BITMAP
FFFFC0
FFFFE0
FFFFE0
C000E0
C000E0
C7F0E0
C7F0E0
C7F8E0
C718E0
C700E0
C700E0
C700E0
C700E0
C700E0
C738E0
C7F8E0
C7F0E0
C000E0
C000E0
FFFFE0
FFFFE0
FFFFC0
ENDCHAR
STARTCHAR 00AB
ENCODING 171
SWIDTH 468 0
DWIDTH 13 0
BBX 11 12 1 3
BITMAP
0400
0C20
1CE0
79E0
F380
C700
C700
F380
39E0
1C60
0C20
0400
ENDCHAR
STARTCHAR 00AC
ENCODING 172
SWIDTH 540 0
DWIDTH 15 0
BBX 14 7 1 4
BITMAP
FFFC
FFFC
FFFC
001C
001C
001C
001C
ENDCHAR
STARTCHAR 00AE
ENCODING 174
SWIDTH 360 0
DWIDTH 10 0
BBX 9 10 1 9
BITMAP
FF80
8080
BC80
B480
BC80
BC80
B480
B480
8080
FF80
ENDCHAR
STARTCHAR 00AF
ENCODING 175
SWIDTH 396 0
DWIDTH 11 0
BBX 10 3 1 20
BITMAP
FFC0
FFC0
FFC0
ENDCHAR
STARTCHAR 00B0
ENCODING 176
SWIDTH 216 0
DWIDTH 6 0
BBX 5 5 1 14
BITMAP
F8
D8
D8
F8
F8
ENDCHAR
STARTCHAR 00B1
ENCODING 177
SWIDTH 396 0
DWIDTH 11 0
BBX 10 14 1 1
BITMAP
0C00
0C00
0C00
0C00
FFC0
FFC0
FFC0
0C00
0C00
0C00
0C00
0000
FFC0
FFC0
ENDCHAR
STARTCHAR 00B4
ENCODING 180
SWIDTH 396 0
DWIDTH 11 0
BBX 10 3 1 20
BITMAP
FFC0
FC00
8000
ENDCHAR
STARTCHAR 00B6
ENCODING 182
SWIDTH 396 0
DWIDTH 11 0
BBX 10 19 1 0
BITMAP
FEC0
FEC0
FEC0
FEC0
FEC0
FEC0
FEC0
FEC0
02C0
02C0
02C0
02C0
02C0
02C0
02C0
02C0
02C0
02C0
02C0
ENDCHAR
STARTCHAR 00B7
ENCODING 183
SWIDTH 144 0
DWIDTH 4 0
BBX 3 4 1 9
BITMAP
E0
E0
E0
E0
ENDCHAR
STARTCHAR 00B8
ENCODING 184
SWIDTH 180 0
DWIDTH 5 0
BBX 4 4 1 -4
BITMAP
30
60
20
E0
ENDCHAR
STARTCHAR 00BB
ENCODING 187
SWIDTH 468 0
DWIDTH 13 0
BBX 11 12 1 3
BITMAP
0400
8600
E700
73C0
38E0
1C60
1C60
39E0
F380
E700
8600
0400
ENDCHAR
STARTCHAR 00BC
ENCODING 188
SWIDTH 576 0
DWIDTH 16 0
BBX 14 19 1 0
BITMAP
7830
F830
F870
B860
38E0
38C0
39C0
3980
3B80
0338
0738
0678
0EF8
0CD8
1DD8
19FC
39FC
3818
3018
ENDCHAR
STARTCHAR 00BD
ENCODING 189
SWIDTH 612 0
DWIDTH 17 0
BBX 16 19 1 0
BITMAP
7830
F830
F870
B860
38E0
38C0
39C0
3980
3B80
033E
077F
0677
0E07
0C0E
1C1C
1838
3870
387F
307F
ENDCHAR
STARTCHAR 00BE
ENCODING 190
SWIDTH 612 0
DWIDTH 17 0
BBX 16 19 1 0
BITMAP
FC1C
7C18
0C38
7C30
7C30
0C60
0C60
7CE0
FCC0
01CC
019E
03BE
033E
077E
066E
0E7F
0C7F
1C0E
180E
ENDCHAR
STARTCHAR 00BF
ENCODING 191
SWIDTH 504 0
DWIDTH 14 0
BBX 13 19 1 0
BITMAP
0F00
0F00
0F00
0000
0000
0F00
0F00
0F00
1F00
1E00
3E00
7C00
7800
F878
F878
FFF8
FFF0
FFF0
FFE0
ENDCHAR
STARTCHAR 00C0
ENCODING 192
SWIDTH 576 0
DWIDTH 16 0
BBX 16 23 0 0
BITMAP
1F80
1FF8
0000
0000
0FF0
0FF8
0FF8
1FF8
1E78
1E38
1E3C
1C3C
3C3C
3C3C
3C3C
3C3E
3FFE
7FFE
7BFE
781E
781F
781F
F80F
ENDCHAR
STARTCHAR 00C1
ENCODING 193
SWIDTH 576 0
DWIDTH 16 0
BBX 16 23 0 0
BITMAP
0FF8
1FC0
1800
0000
0FF0
0FF8
0FF8
1FF8
1E78
1E38
1E3C
1C3C
3C3C
3C3C
3C3C
3C3E
3FFE
7FFE
7BFE
781E
781F
781F
F80F
ENDCHAR
STARTCHAR 00C2
ENCODING 194
SWIDTH 576 0
DWIDTH 16 0
BBX 16 24 0 0
BITMAP
0FF0
1FF8
383C
300C
0000
0FF0
0FF8
0FF8
1FF8
1E78
1E38
1E3C
1C3C
3C3C
3C3C
3C3C
3C3E
3FFE
7FFE
7BFE
781E
781F
781F
F80F
ENDCHAR
STARTCHAR 00C3
ENCODING 195
SWIDTH 576 0
DWIDTH 16 0
BBX 16 24 0 0
BITMAP
0F84
3FFC
38FC
2000
0000
0FF0
0FF8
0FF8
1FF8
1E78
1E38
1E3C
1C3C
3C3C
3C3C
3C3C
3C3E
3FFE
7FFE
7BFE
781E
781F
781F
F80F
ENDCHAR
STARTCHAR 00C4
ENCODING 196
SWIDTH 576 0
DWIDTH 16 0
BBX 16 23 0 0
BITMAP
0670
0670
0670
0000
0FF0
0FF8
0FF8
1FF8
1E78
1E38
1E3C
1C3C
3C3C
3C3C
3C3C
3C3E
3FFE
7FFE
7BFE
781E
781F
781F
F80F
ENDCHAR
STARTCHAR 00C5
ENCODING 197
SWIDTH 576 0
DWIDTH 16 0
BBX 16 25 0 0
BITMAP
01C0
03C0
0240
03C0
01C0
0000
0FF0
0FF8
0FF8
1FF8
1E78
1E38
1E3C
1C3C
3C3C
3C3C
3C3C
3C3E
3FFE
7FFE
7BFE
781E
781F
781F
F80F
ENDCHAR
STARTCHAR 00C6
ENCODING 198
SWIDTH 828 0
DWIDTH 23 0
BBX 22 19 0 0
BITMAP
0FFFF8
0FFFF8
0FFFFC
1FFFFC
1E7C1C
1E7C00
1E7C00
1C7C00
3C7FE0
3C7FE0
3C7FE0
3C7C00
3FFC00
7FFC00
7BFC3C
787FFC
787FFC
787FF8
F87FF0
ENDCHAR
STARTCHAR 00C7
ENCODING 199
SWIDTH 540 0
DWIDTH 15 0
BBX 13 23 1 -4
BITMAP
FFF0
FFF0
FFF8
FFF8
F078
F000
F000
F000
F000
F000
F000
F000
F000
F000
F0F8
FFF8
FFF8
FFF0
FFE0
0300
0600
0200
0E00
ENDCHAR
STARTCHAR 00C8
ENCODING 200
SWIDTH 540 0
DWIDTH 15 0
BBX 13 23 1 0
BITMAP
7F00
3FE0
0000
0000
FFE0
FFF0
FFF8
FFF8
F078
F000
F000
F000
FFC0
FFC0
FFC0
F000
F000
F000
F078
FFF8
FFF8
FFF0
FFE0
ENDCHAR
STARTCHAR 00C9
ENCODING 201
SWIDTH 540 0
DWIDTH 15 0
BBX 13 23 1 0
BITMAP
3FE0
7F00
6000
0000
FFE0
FFF0
FFF8
FFF8
F078
F000
F000
F000
FFC0
FFC0
FFC0
F000
F000
F000
F078
FFF8
FFF8
FFF0
FFE0
ENDCHAR
STARTCHAR 00CA
ENCODING 202
SWIDTH 540 0
DWIDTH 15 0
BBX 13 24 1 0
BITMAP
3FC0
7FE0
E0E0
C060
0000
FFE0
FFF0
FFF8
FFF8
F078
F000
F000
F000
FFC0
FFC0
FFC0
F000
F000
F000
F078
FFF8
FFF8
FFF0
FFE0
ENDCHAR
STARTCHAR 00CB
ENCODING 203
SWIDTH 540 0
DWIDTH 15 0
BBX 13 23 1 0
BITMAP
19C0
19C0
19C0
0000
FFE0
FFF0
FFF8
FFF8
F078
F000
F000
F000
FFC0
FFC0
FFC0
F000
F000
F000
F078
FFF8
FFF8
FFF0
FFE0
ENDCHAR
STARTCHAR 00CC
ENCODING 204
SWIDTH 216 0
DWIDTH 6 0
BBX 10 23 -1 0
BITMAP
FC00
FFC0
0000
0000
3C00
3C00
3C00
3C00
3C00
3C00
3C00
3C00
3C00
3C00
3C00
3C00
3C00
3C00
3C00
3C00
3C00
3C00
3C00
ENDCHAR
STARTCHAR 00CD
ENCODING 205
SWIDTH 216 0
DWIDTH 6 0
BBX 10 23 -2 0
BITMAP
7FC0
FE00
C000
0000
1E00
1E00
1E00
1E00
1E00
1E00
1E00
1E00
1E00
1E00
1E00
1E00
1E00
1E00
1E00
1E00
1E00
1E00
1E00
ENDCHAR
STARTCHAR 00CE
ENCODING 206
SWIDTH 468 0
DWIDTH 13 0
BBX 11 24 1 0
BITMAP
3FC0
7FE0
E0E0
C060
0000
0F00
0F00
0F00
0F00
0F00
0F00
0F00
0F00
0F00
0F00
0F00
0F00
0F00
0F00
0F00
0F00
0F00
0F00
0F00
ENDCHAR
STARTCHAR 00CF
ENCODING 207
SWIDTH 216 0
DWIDTH 6 0
BBX 7 23 0 0
BITMAP
CE
CE
CE
00
78
78
78
78
78
78
78
78
78
78
78
78
78
78
78
78
78
78
78
ENDCHAR
STARTCHAR 00D0
ENCODING 208
SWIDTH 576 0
DWIDTH 16 0
BBX 16 19 -1 0
BITMAP
3FFC
3FFE
3FFF
3FFF
3C1F
3C0F
3C0F
3C0F
FF8F
FF8F
FF8F
3C0F
3C0F
3C0F
3C1F
3FFF
3FFF
3FFE
3FFC
ENDCHAR
STARTCHAR 00D1
ENCODING 209
SWIDTH 540 0
DWIDTH 15 0
BBX 14 24 1 0
BITMAP
1F08
7FF8
71F8
4000
0000
387C
787C
FC7C
FC7C
FE7C
FE7C
FF7C
FF7C
FF7C
F7FC
F3FC
F3FC
F1FC
F1FC
F1FC
F0FC
F0F8
F078
F070
ENDCHAR
STARTCHAR 00D2
ENCODING 210
SWIDTH 612 0
DWIDTH 17 0
BBX 15 23 1 0
BITMAP
1F80
1FF8
0000
0000
3FFC
7FFC
FFFE
FFFE
F81E
F01E
F01E
F01E
F01E
F01E
F01E
F01E
F01E
F01E
F83E
FFFE
7FFE
7FFC
3FF8
ENDCHAR
STARTCHAR 00D3
ENCODING 211
SWIDTH 612 0
DWIDTH 17 0
BBX 15 23 1 0
BITMAP
1FF8
1FC0
1800
0000
3FFC
7FFC
FFFE
FFFE
F81E
F01E
F01E
F01E
F01E
F01E
F01E
F01E
F01E
F01E
F83E
FFFE
7FFE
7FFC
3FF8
ENDCHAR
STARTCHAR 00D4
ENCODING 212
SWIDTH 612 0
DWIDTH 17 0
BBX 15 24 1 0
BITMAP
0FF0
1FF8
3838
3018
0000
3FFC
7FFC
FFFE
FFFE
F81E
F01E
F01E
F01E
F01E
F01E
F01E
F01E
F01E
F01E
F83E
FFFE
7FFE
7FFC
3FF8
ENDCHAR
STARTCHAR 00D5
ENCODING 213
SWIDTH 612 0
DWIDTH 17 0
BBX 15 24 1 0
BITMAP
0F08
3FF8
38F8
2000
0000
3FFC
7FFC
FFFE
FFFE
F81E
F01E
F01E
F01E
F01E
F01E
F01E
F01E
F01E
F01E
F83E
FFFE
7FFE
7FFC
3FF8
ENDCHAR
STARTCHAR 00D6
ENCODING 214
SWIDTH 612 0
DWIDTH 17 0
BBX 15 23 1 0
BITMAP
0E60
0E60
0E60
0000
3FFC
7FFC
FFFE
FFFE
F81E
F01E
F01E
F01E
F01E
F01E
F01E
F01E
F01E
F01E
F83E
FFFE
7FFE
7FFC
3FF8
ENDCHAR
STARTCHAR 00D7
ENCODING 215
SWIDTH 396 0
DWIDTH 11 0
BBX 10 9 1 5
BITMAP
4100
E380
F780
7F00
3E00
7F00
FF80
E3C0
4180
ENDCHAR
STARTCHAR 00D8
ENCODING 216
SWIDTH 612 0
DWIDTH 17 0
BBX 15 24 1 -2
BITMAP
000E
001C
001C
3FFC
7FFC
FFFE
FFFE
F8FE
F0FE
F1DE
F1DE
F3DE
F39E
F79E
F71E
F71E
FE1E
FE3E
FFFE
7FFE
7FFC
3FF8
7000
7000
ENDCHAR
STARTCHAR 00D9
ENCODING 217
SWIDTH 612 0
DWIDTH 17 0
BBX 15 23 1 0
BITMAP
1F80
1FF8
0000
0000
F01E
F01E
F01E
F01E
F01E
F01E
F01E
F01E
F01E
F01E
F01E
F01E
F01E
F01E
F83E
FFFE
7FFE
7FFC
3FF8
ENDCHAR
STARTCHAR 00DA
ENCODING 218
SWIDTH 612 0
DWIDTH 17 0
BBX 15 23 1 0
BITMAP
1FF8
1F80
1000
0000
F01E
F01E
F01E
F01E
F01E
F01E
F01E
F01E
F01E
F01E
F01E
F01E
F01E
F01E
F83E
FFFE
7FFE
7FFC
3FF8
ENDCHAR
STARTCHAR 00DB
ENCODING 219
SWIDTH 612 0
DWIDTH 17 0
BBX 15 24 1 0
BITMAP
0FE0
3FF8
3838
3018
0000
F01E
F01E
F01E
F01E
F01E
F01E
F01E
F01E
F01E
F01E
F01E
F01E
F01E
F01E
F83E
FFFE
7FFE
7FFC
3FF8
ENDCHAR
STARTCHAR 00DC
ENCODING 220
SWIDTH 612 0
DWIDTH 17 0
BBX 15 23 1 0
BITMAP
0E60
0E60
0E60
0000
F01E
F01E
F01E
F01E
F01E
F01E
F01E
F01E
F01E
F01E
F01E
F01E
F01E
F01E
F83E
FFFE
7FFE
7FFC
3FF8
ENDCHAR
STARTCHAR 00DD
ENCODING 221
SWIDTH 468 0
DWIDTH 13 0
BBX 13 23 0 0
BITMAP
3FF0
3F00
2000
0000
F078
F8F8
F8F8
78F0
7DF0
3DE0
3DE0
1FC0
1FC0
0FC0
0F80
0F80
0F80
0F80
0F80
0F80
0F80
0F80
0F80
ENDCHAR
STARTCHAR 00DE
ENCODING 222
SWIDTH 540 0
DWIDTH 15 0
BBX 13 23 1 0
BITMAP
F000
F000
F000
F000
FFE0
FFF0
FFF8
FFF8
F0F8
F078
F078
F078
FFF8
FFF8
FFF0
FFF0
FFE0
F000
F000
F000
F000
F000
F000
ENDCHAR
STARTCHAR 00DF
ENCODING 223
SWIDTH 576 0
DWIDTH 16 0
BBX 14 19 1 0
BITMAP
3FF0
7FF8
FFFC
F07C
F03C
F03C
F03C
F3FC
F3F8
F3F8
F3FC
F03C
F03C
F03C
F03C
F3FC
F3FC
F3F8
F3F0
ENDCHAR
STARTCHAR 00E0
ENCODING 224
SWIDTH 576 0
DWIDTH 16 0
BBX 16 23 0 0
BITMAP
1F80
1FF8
0000
0000
0FF0
0FF8
0FF8
1FF8
1E78
1E38
1E3C
1C3C
3C3C
3C3C
3C3C
3C3E
3FFE
7FFE
7BFE
781E
781F
781F
F80F
ENDCHAR
STARTCHAR 00E1
ENCODING 225
SWIDTH 576 0
DWIDTH 16 0
BBX 16 23 0 0
BITMAP
0FF8
1FC0
1800
0000
0FF0
0FF8
0FF8
1FF8
1E78
1E38
1E3C
1C3C
3C3C
3C3C
3C3C
3C3E
3FFE
7FFE
7BFE
781E
781F
781F
F80F
ENDCHAR
STARTCHAR 00E2
ENCODING 226
SWIDTH 576 0
DWIDTH 16 0
BBX 16 24 0 0
BITMAP
0FF0
1FF8
383C
300C
0000
0FF0
0FF8
0FF8
1FF8
1E78
1E38
1E3C
1C3C
3C3C
3C3C
3C3C
3C3E
3FFE
7FFE
7BFE
781E
781F
781F
F80F
ENDCHAR
STARTCHAR 00E3
ENCODING 227
SWIDTH 576 0
DWIDTH 16 0
BBX 16 24 0 0
BITMAP
0F84
3FFC
38FC
2000
0000
0FF0
0FF8
0FF8
1FF8
1E78
1E38
1E3C
1C3C
3C3C
3C3C
3C3C
3C3E
3FFE
7FFE
7BFE
781E
781F
781F
F80F
ENDCHAR
STARTCHAR 00E4
ENCODING 228
SWIDTH 576 0
DWIDTH 16 0
BBX 16 23 0 0
BITMAP
0670
0670
0670
0000
0FF0
0FF8
0FF8
1FF8
1E78
1E38
1E3C
1C3C
3C3C
3C3C
3C3C
3C3E
3FFE
7FFE
7BFE
781E
781F
781F
F80F
ENDCHAR
STARTCHAR 00E5
ENCODING 229
SWIDTH 576 0
DWIDTH 16 0
BBX 16 25 0 0
BITMAP
01C0
03C0
0240
03C0
01C0
0000
0FF0
0FF8
0FF8
1FF8
1E78
1E38
1E3C
1C3C
3C3C
3C3C
3C3C
3C3E
3FFE
7FFE
7BFE
781E
781F
781F
F80F
ENDCHAR
STARTCHAR 00E6
ENCODING 230
SWIDTH 828 0
DWIDTH 23 0
BBX 22 19 0 0
BITMAP
0FFFF8
0FFFF8
0FFFFC
1FFFFC
1E7C1C
1E7C00
1E7C00
1C7C00
3C7FE0
3C7FE0
3C7FE0
3C7C00
3FFC00
7FFC00
7BFC3C
787FFC
787FFC
787FF8
F87FF0
ENDCHAR
STARTCHAR 00E7
ENCODING 231
SWIDTH 540 0
DWIDTH 15 0
BBX 13 23 1 -4
BITMAP
FFF0
FFF0
FFF8
FFF8
F078
F000
F000
F000
F000
F000
F000
F000
F000
F000
F0F8
FFF8
FFF8
FFF0
FFE0
0300
0600
0200
0E00
ENDCHAR
STARTCHAR 00E8
ENCODING 232
SWIDTH 540 0
DWIDTH 15 0
BBX 13 23 1 0
BITMAP
7F00
3FE0
0000
0000
FFE0
FFF0
FFF8
FFF8
F078
F000
F000
F000
FFC0
FFC0
FFC0
F000
F000
F000
F078
FFF8
FFF8
FFF0
FFE0
ENDCHAR
STARTCHAR 00E9
ENCODING 233
SWIDTH 540 0
DWIDTH 15 0
BBX 13 23 1 0
BITMAP
3FE0
7F00
6000
0000
FFE0
FFF0
FFF8
FFF8
F078
F000
F000
F000
FFC0
FFC0
FFC0
F000
F000
F000
F078
FFF8
FFF8
FFF0
FFE0
ENDCHAR
STARTCHAR 00EA
ENCODING 234
SWIDTH 540 0
DWIDTH 15 0
BBX 13 24 1 0
BITMAP
3FC0
7FE0
E0E0
C060
0000
FFE0
FFF0
FFF8
FFF8
F078
F000
F000
F000
FFC0
FFC0
FFC0
F000
F000
F000
F078
FFF8
FFF8
FFF0
FFE0
ENDCHAR
STARTCHAR 00EB
ENCODING 235
SWIDTH 540 0
DWIDTH 15 0
BBX 13 23 1 0
BITMAP
3980
3980
3980
0000
FFE0
FFF0
FFF8
FFF8
F078
F000
F000
F000
FFC0
FFC0
FFC0
F000
F000
F000
F078
FFF8
FFF8
FFF0
FFE0
ENDCHAR
STARTCHAR 00EC
ENCODING 236
SWIDTH 216 0
DWIDTH 6 0
BBX 10 23 -2 0
BITMAP
FE00
7FC0
0000
0000
1E00
1E00
1E00
1E00
1E00
1E00
1E00
1E00
1E00
1E00
1E00
1E00
1E00
1E00
1E00
1E00
1E00
1E00
1E00
ENDCHAR
STARTCHAR 00ED
ENCODING 237
SWIDTH 216 0
DWIDTH 6 0
BBX 10 23 -2 0
BITMAP
7FC0
FE00
C000
0000
1E00
1E00
1E00
1E00
1E00
1E00
1E00
1E00
1E00
1E00
1E00
1E00
1E00
1E00
1E00
1E00
1E00
1E00
1E00
ENDCHAR
STARTCHAR 00EE
ENCODING 238
SWIDTH 468 0
DWIDTH 13 0
BBX 11 24 1 0
BITMAP
3FC0
7FE0
E0E0
C060
0000
0F00
0F00
0F00
0F00
0F00
0F00
0F00
0F00
0F00
0F00
0F00
0F00
0F00
0F00
0F00
0F00
0F00
0F00
0F00
ENDCHAR
STARTCHAR 00EF
ENCODING 239
SWIDTH 216 0
DWIDTH 6 0
BBX 7 23 0 0
BITMAP
CE
CE
CE
00
78
78
78
78
78
78
78
78
78
78
78
78
78
78
78
78
78
78
78
ENDCHAR
STARTCHAR 00F0
ENCODING 240
SWIDTH 576 0
DWIDTH 16 0
BBX 16 19 -1 0
BITMAP
3FFC
3FFE
3FFF
3FFF
3C1F
3C0F
3C0F
3C0F
FF8F
FF8F
FF8F
3C0F
3C0F
3C0F
3C1F
3FFF
3FFF
3FFE
3FFC
ENDCHAR
STARTCHAR 00F1
ENCODING 241
SWIDTH 540 0
DWIDTH 15 0
BBX 14 24 1 0
BITMAP
1F08
7FF8
71F8
4000
0000
387C
787C
FC7C
FC7C
FE7C
FE7C
FF7C
FF7C
FF7C
F7FC
F3FC
F3FC
F1FC
F1FC
F1FC
F0FC
F0F8
F078
F070
ENDCHAR
STARTCHAR 00F2
ENCODING 242
SWIDTH 612 0
DWIDTH 17 0
BBX 15 23 1 0
BITMAP
3F80
1FF0
0000
0000
3FFC
7FFC
FFFE
FFFE
F81E
F01E
F01E
F01E
F01E
F01E
F01E
F01E
F01E
F01E
F83E
FFFE
7FFE
7FFC
3FF8
ENDCHAR
STARTCHAR 00F3
ENCODING 243
SWIDTH 612 0
DWIDTH 17 0
BBX 15 23 1 0
BITMAP
1FF0
3F80
3000
0000
3FFC
7FFC
FFFE
FFFE
F81E
F01E
F01E
F01E
F01E
F01E
F01E
F01E
F01E
F01E
F83E
FFFE
7FFE
7FFC
3FF8
ENDCHAR
STARTCHAR 00F4
ENCODING 244
SWIDTH 612 0
DWIDTH 17 0
BBX 15 24 1 0
BITMAP
0FF0
1FF8
3838
3018
0000
3FFC
7FFC
FFFE
FFFE
F81E
F01E
F01E
F01E
F01E
F01E
F01E
F01E
F01E
F01E
F83E
FFFE
7FFE
7FFC
3FF8
ENDCHAR
STARTCHAR 00F5
ENCODING 245
SWIDTH 612 0
DWIDTH 17 0
BBX 15 24 1 0
BITMAP
0F08
3FF8
38F8
2000
0000
3FFC
7FFC
FFFE
FFFE
F81E
F01E
F01E
F01E
F01E
F01E
F01E
F01E
F01E
F01E
F83E
FFFE
7FFE
7FFC
3FF8
ENDCHAR
STARTCHAR 00F6
ENCODING 246
SWIDTH 612 0
DWIDTH 17 0
BBX 15 23 1 0
BITMAP
0E60
0E60
0E60
0000
3FFC
7FFC
FFFE
FFFE
F81E
F01E
F01E
F01E
F01E
F01E
F01E
F01E
F01E
F01E
F83E
FFFE
7FFE
7FFC
3FF8
ENDCHAR
STARTCHAR 00F7
ENCODING 247
SWIDTH 396 0
DWIDTH 11 0
BBX 10 10 1 5
BITMAP
0C00
0C00
0C00
0000
FFC0
FFC0
0000
0C00
0C00
0C00
ENDCHAR
STARTCHAR 00F8
ENCODING 248
SWIDTH 612 0
DWIDTH 17 0
BBX 15 24 1 -2
BITMAP
000E
001C
001C
3FFC
7FFC
FFFE
FFFE
F8FE
F0FE
F1DE
F1DE
F3DE
F39E
F79E
F71E
F71E
FE1E
FE3E
FFFE
7FFE
7FFC
3FF8
7000
7000
ENDCHAR
STARTCHAR 00F9
ENCODING 249
SWIDTH 612 0
DWIDTH 17 0
BBX 15 23 1 0
BITMAP
1F80
1FF8
0000
0000
F01E
F01E
F01E
F01E
F01E
F01E
F01E
F01E
F01E
F01E
F01E
F01E
F01E
F01E
F83E
FFFE
7FFE
7FFC
3FF8
ENDCHAR
STARTCHAR 00FA
ENCODING 250
SWIDTH 612 0
DWIDTH 17 0
BBX 15 23 1 0
BITMAP
1FF8
1F80
1000
0000
F01E
F01E
F01E
F01E
F01E
F01E
F01E
F01E
F01E
F01E
F01E
F01E
F01E
F01E
F83E
FFFE
7FFE
7FFC
3FF8
ENDCHAR
STARTCHAR 00FB
ENCODING 251
SWIDTH 612 0
DWIDTH 17 0
BBX 15 24 1 0
BITMAP
0FE0
3FF8
3838
3018
0000
F01E
F01E
F01E
F01E
F01E
F01E
F01E
F01E
F01E
F01E
F01E
F01E
F01E
F01E
F83E
FFFE
7FFE
7FFC
3FF8
ENDCHAR
STARTCHAR 00FC
ENCODING 252
SWIDTH 612 0
DWIDTH 17 0
BBX 15 23 1 0
BITMAP
0E60
0E60
0E60
0000
F01E
F01E
F01E
F01E
F01E
F01E
F01E
F01E
F01E
F01E
F01E
F01E
F01E
F01E
F83E
FFFE
7FFE
7FFC
3FF8
ENDCHAR
STARTCHAR 00FD
ENCODING 253
SWIDTH 468 0
DWIDTH 13 0
BBX 13 23 0 0
BITMAP
3FF0
3F00
2000
0000
F078
F8F8
F8F8
78F0
7DF0
3DE0
3DE0
1FC0
1FC0
0FC0
0F80
0F80
0F80
0F80
0F80
0F80
0F80
0F80
0F80
ENDCHAR
STARTCHAR 00FE
ENCODING 254
SWIDTH 540 0
DWIDTH 15 0
BBX 13 23 1 0
BITMAP
F000
F000
F000
F000
FFE0
FFF0
FFF8
FFF8
F0F8
F078
F078
F078
FFF8
FFF8
FFF0
FFF0
FFE0
F000
F000
F000
F000
F000
F000
ENDCHAR
STARTCHAR 00FF
ENCODING 255
SWIDTH 468 0
DWIDTH 13 0
BBX 13 23 0 0
BITMAP
1CC0
1CC0
1CC0
0000
F078
F8F8
F8F8
78F0
7DF0
3DE0
3DE0
1FC0
1FC0
0FC0
0F80
0F80
0F80
0F80
0F80
0F80
0F80
0F80
0F80
ENDCHAR
STARTCHAR 0100
ENCODING 256
SWIDTH 576 0
DWIDTH 16 0
BBX 16 23 0 0
BITMAP
1FF8
1FF8
1FF8
0000
0FF0
0FF8
0FF8
1FF8
1E78
1E38
1E3C
1C3C
3C3C
3C3C
3C3C
3C3E
3FFE
7FFE
7BFE
781E
781F
781F
F80F
ENDCHAR
STARTCHAR 0101
ENCODING 257
SWIDTH 576 0
DWIDTH 16 0
BBX 16 23 0 0
BITMAP
1FF8
1FF8
1FF8
0000
0FF0
0FF8
0FF8
1FF8
1E78
1E38
1E3C
1C3C
3C3C
3C3C
3C3C
3C3E
3FFE
7FFE
7BFE
781E
781F
781F
F80F
ENDCHAR
STARTCHAR 0102
ENCODING 258
SWIDTH 576 0
DWIDTH 16 0
BBX 16 24 0 0
BITMAP
381C
3FFC
1FF8
0FE0
0000
0FF0
0FF8
0FF8
1FF8
1E78
1E38
1E3C
1C3C
3C3C
3C3C
3C3C
3C3E
3FFE
7FFE
7BFE
781E
781F
781F
F80F
ENDCHAR
STARTCHAR 0103
ENCODING 259
SWIDTH 576 0
DWIDTH 16 0
BBX 16 24 0 0
BITMAP
381C
3FFC
1FF8
0FE0
0000
0FF0
0FF8
0FF8
1FF8
1E78
1E38
1E3C
1C3C
3C3C
3C3C
3C3C
3C3E
3FFE
7FFE
7BFE
781E
781F
781F
F80F
ENDCHAR
STARTCHAR 0104
ENCODING 260
SWIDTH 576 0
DWIDTH 16 0
BBX 18 23 0 -4
BITMAP
0FF000
0FF800
0FF800
1FF800
1E7800
1E3800
1E3C00
1C3C00
3C3C00
3C3C00
3C3C00
3C3E00
3FFE00
7FFE00
7BFE00
781E00
781F00
781F00
F80F00
000300
000600
0006C0
000780
ENDCHAR
STARTCHAR 0105
ENCODING 261
SWIDTH 576 0
DWIDTH 16 0
BBX 18 23 0 -4
BITMAP
0FF000
0FF800
0FF800
1FF800
1E7800
1E3800
1E3C00
1C3C00
3C3C00
3C3C00
3C3C00
3C3E00
3FFE00
7FFE00
7BFE00
781E00
781F00
781F00
F80F00
000300
000600
0006C0
000780
ENDCHAR
STARTCHAR 0106
ENCODING 262
SWIDTH 540 0
DWIDTH 15 0
BBX 13 23 1 0
BITMAP
3FF0
3F00
2000
0000
FFF0
FFF0
FFF8
FFF8
F078
F000
F000
F000
F000
F000
F000
F000
F000
F000
F0F8
FFF8
FFF8
FFF0
FFE0
ENDCHAR
STARTCHAR 0107
ENCODING 263
SWIDTH 540 0
DWIDTH 15 0
BBX 13 23 1 0
BITMAP
3FF0
3F00
2000
0000
FFF0
FFF0
FFF8
FFF8
F078
F000
F000
F000
F000
F000
F000
F000
F000
F000
F0F8
FFF8
FFF8
FFF0
FFE0
ENDCHAR
STARTCHAR 0108
ENCODING 264
SWIDTH 540 0
DWIDTH 15 0
BBX 13 24 1 0
BITMAP
3FC0
7FE0
E0E0
C060
0000
FFF0
FFF0
FFF8
FFF8
F078
F000
F000
F000
F000
F000
F000
F000
F000
F000
F0F8
FFF8
FFF8
FFF0
FFE0
ENDCHAR
STARTCHAR 0109
ENCODING 265
SWIDTH 540 0
DWIDTH 15 0
BBX 13 24 1 0
BITMAP
3FC0
7FE0
E0E0
C060
0000
FFF0
FFF0
FFF8
FFF8
F078
F000
F000
F000
F000
F000
F000
F000
F000
F000
F0F8
FFF8
FFF8
FFF0
FFE0
ENDCHAR
STARTCHAR 010A
ENCODING 266
SWIDTH 540 0
DWIDTH 15 0
BBX 13 24 1 0
BITMAP
0700
0700
0700
0300
0000
FFF0
FFF0
FFF8
FFF8
F078
F000
F000
F000
F000
F000
F000
F000
F000
F000
F0F8
FFF8
FFF8
FFF0
FFE0
ENDCHAR
STARTCHAR 010B
ENCODING 267
SWIDTH 540 0
DWIDTH 15 0
BBX 13 24 1 0
BITMAP
0700
0700
0700
0300
0000
FFF0
FFF0
FFF8
FFF8
F078
F000
F000
F000
F000
F000
F000
F000
F000
F000
F0F8
FFF8
FFF8
FFF0
FFE0
ENDCHAR
STARTCHAR 010C
ENCODING 268
SWIDTH 540 0
DWIDTH 15 0
BBX 13 24 1 0
BITMAP
30C0
39C0
1F80
0F00
0000
FFF0
FFF0
FFF8
FFF8
F078
F000
F000
F000
F000
F000
F000
F000
F000
F000
F0F8
FFF8
FFF8
FFF0
FFE0
ENDCHAR
STARTCHAR 010D
ENCODING 269
SWIDTH 540 0
DWIDTH 15 0
BBX 13 24 1 0
BITMAP
30C0
39C0
1F80
0F00
0000
FFF0
FFF0
FFF8
FFF8
F078
F000
F000
F000
F000
F000
F000
F000
F000
F000
F0F8
FFF8
FFF8
FFF0
FFE0
ENDCHAR
STARTCHAR 010E
ENCODING 270
SWIDTH 576 0
DWIDTH 16 0
BBX 14 24 1 0
BITMAP
1860
1CE0
0FC0
0780
0000
FFF0
FFF8
FFFC
FFFC
F07C
F03C
F03C
F03C
F03C
F03C
F03C
F03C
F03C
F03C
F07C
FFFC
FFFC
FFF8
FFF0
ENDCHAR
STARTCHAR 010F
ENCODING 271
SWIDTH 756 0
DWIDTH 21 0
BBX 20 19 1 0
BITMAP
FFF070
FFF870
FFFC70
FFFC60
F07CE0
F03DC0
F03C00
F03C00
F03C00
F03C00
F03C00
F03C00
F03C00
F03C00
F07C00
FFFC00
FFFC00
FFF800
FFF000
ENDCHAR
STARTCHAR 0110
ENCODING 272
SWIDTH 576 0
DWIDTH 16 0
BBX 16 19 -1 0
BITMAP
3FFC
3FFE
3FFF
3FFF
3C1F
3C0F
3C0F
3C0F
FF8F
FF8F
FF8F
3C0F
3C0F
3C0F
3C1F
3FFF
3FFF
3FFE
3FFC
ENDCHAR
STARTCHAR 0111
ENCODING 273
SWIDTH 576 0
DWIDTH 16 0
BBX 16 19 -1 0
BITMAP
3FFC
3FFE
3FFF
3FFF
3C1F
3C0F
3C0F
3C0F
FF8F
FF8F
FF8F
3C0F
3C0F
3C0F
3C1F
3FFF
3FFF
3FFE
3FFC
ENDCHAR
STARTCHAR 0112
ENCODING 274
SWIDTH 540 0
DWIDTH 15 0
BBX 13 23 1 0
BITMAP
FFE0
FFE0
FFE0
0000
FFE0
FFF0
FFF8
FFF8
F078
F000
F000
F000
FFC0
FFC0
FFC0
F000
F000
F000
F078
FFF8
FFF8
FFF0
FFE0
ENDCHAR
STARTCHAR 0113
ENCODING 275
SWIDTH 540 0
DWIDTH 15 0
BBX 13 23 1 0
BITMAP
FFE0
FFE0
FFE0
0000
FFE0
FFF0
FFF8
FFF8
F078
F000
F000
F000
FFC0
FFC0
FFC0
F000
F000
F000
F078
FFF8
FFF8
FFF0
FFE0
ENDCHAR
STARTCHAR 0116
ENCODING 278
SWIDTH 540 0
DWIDTH 15 0
BBX 13 24 1 0
BITMAP
0600
0F00
0F00
0600
0000
FFE0
FFF0
FFF8
FFF8
F078
F000
F000
F000
FFC0
FFC0
FFC0
F000
F000
F000
F078
FFF8
FFF8
FFF0
FFE0
ENDCHAR
STARTCHAR 0117
ENCODING 279
SWIDTH 540 0
DWIDTH 15 0
BBX 13 24 1 0
BITMAP
0600
0F00
0F00
0600
0000
FFE0
FFF0
FFF8
FFF8
F078
F000
F000
F000
FFC0
FFC0
FFC0
F000
F000
F000
F078
FFF8
FFF8
FFF0
FFE0
ENDCHAR
STARTCHAR 0118
ENCODING 280
SWIDTH 540 0
DWIDTH 15 0
BBX 13 23 1 -4
BITMAP
FFE0
FFF0
FFF8
FFF8
F078
F000
F000
F000
FFC0
FFC0
FFC0
F000
F000
F000
F078
FFF8
FFF8
FFF0
FFE0
0600
0C00
0D80
0F00
ENDCHAR
STARTCHAR 0119
ENCODING 281
SWIDTH 540 0
DWIDTH 15 0
BBX 13 23 1 -4
BITMAP
FFE0
FFF0
FFF8
FFF8
F078
F000
F000
F000
FFC0
FFC0
FFC0
F000
F000
F000
F078
FFF8
FFF8
FFF0
FFE0
0600
0C00
0D80
0F00
ENDCHAR
STARTCHAR 011C
ENCODING 284
SWIDTH 540 0
DWIDTH 15 0
BBX 13 24 1 0
BITMAP
1FC0
7FF0
7070
6030
0000
FFF0
FFF0
FFF8
FFF8
F078
F000
F000
F000
F1F8
F1F8
F1F8
F1F8
F078
F078
F078
FFF8
FFF8
FFF8
FFD8
ENDCHAR
STARTCHAR 011D
ENCODING 285
SWIDTH 540 0
DWIDTH 15 0
BBX 13 24 1 0
BITMAP
1FC0
7FF0
7070
6030
0000
FFF0
FFF0
FFF8
FFF8
F078
F000
F000
F000
F1F8
F1F8
F1F8
F1F8
F078
F078
F078
FFF8
FFF8
FFF8
FFD8
ENDCHAR
STARTCHAR 011E
ENCODING 286
SWIDTH 540 0
DWIDTH 15 0
BBX 13 24 1 0
BITMAP
6030
7FF0
3FE0
1FC0
0000
FFF0
FFF0
FFF8
FFF8
F078
F000
F000
F000
F1F8
F1F8
F1F8
F1F8
F078
F078
F078
FFF8
FFF8
FFF8
FFD8
ENDCHAR
STARTCHAR 011F
ENCODING 287
SWIDTH 540 0
DWIDTH 15 0
BBX 13 24 1 0
BITMAP
6030
7FF0
3FE0
1FC0
0000
FFF0
FFF0
FFF8
FFF8
F078
F000
F000
F000
F1F8
F1F8
F1F8
F1F8
F078
F078
F078
FFF8
FFF8
FFF8
FFD8
ENDCHAR
STARTCHAR 0120
ENCODING 288
SWIDTH 540 0
DWIDTH 15 0
BBX 13 24 1 0
BITMAP
0700
0700
0700
0300
0000
FFF0
FFF0
FFF8
FFF8
F078
F000
F000
F000
F1F8
F1F8
F1F8
F1F8
F078
F078
F078
FFF8
FFF8
FFF8
FFD8
ENDCHAR
STARTCHAR 0121
ENCODING 289
SWIDTH 540 0
DWIDTH 15 0
BBX 13 24 1 0
BITMAP
0700
0700
0700
0300
0000
FFF0
FFF0
FFF8
FFF8
F078
F000
F000
F000
F1F8
F1F8
F1F8
F1F8
F078
F078
F078
FFF8
FFF8
FFF8
FFD8
ENDCHAR
STARTCHAR 0122
ENCODING 290
SWIDTH 540 0
DWIDTH 15 0
BBX 13 24 1 -5
BITMAP
FFF0
FFF0
FFF8
FFF8
F078
F000
F000
F000
F1F8
F1F8
F1F8
F1F8
F078
F078
F078
FFF8
FFF8
FFF8
FFD8
0000
0300
0300
0600
0400
ENDCHAR
STARTCHAR 0123
ENCODING 291
SWIDTH 540 0
DWIDTH 15 0
BBX 13 24 1 -5
BITMAP
FFF0
FFF0
FFF8
FFF8
F078
F000
F000
F000
F1F8
F1F8
F1F8
F1F8
F078
F078
F078
FFF8
FFF8
FFF8
FFD8
0000
0300
0300
0600
0400
ENDCHAR
STARTCHAR 0124
ENCODING 292
SWIDTH 576 0
DWIDTH 16 0
BBX 14 24 1 0
BITMAP
1FE0
3FF0
7838
6018
0000
F03C
F03C
F03C
F03C
F03C
F03C
F87C
FFFC
FFFC
FFFC
FFFC
F87C
F03C
F03C
F03C
F03C
F03C
F03C
F03C
ENDCHAR
STARTCHAR 0125
ENCODING 293
SWIDTH 576 0
DWIDTH 16 0
BBX 14 24 1 0
BITMAP
1FE0
3FF0
7838
6018
0000
F03C
F03C
F03C
F03C
F03C
F03C
F87C
FFFC
FFFC
FFFC
FFFC
F87C
F03C
F03C
F03C
F03C
F03C
F03C
F03C
ENDCHAR
STARTCHAR 0126
ENCODING 294
SWIDTH 576 0
DWIDTH 16 0
BBX 18 19 -1 0
BITMAP
3C0F00
FFFFC0
FFFFC0
FFFFC0
3C0F00
3C0F00
3E1F00
3FFF00
3FFF00
3FFF00
3FFF00
3E1F00
3C0F00
3C0F00
3C0F00
3C0F00
3C0F00
3C0F00
3C0F00
ENDCHAR
STARTCHAR 0127
ENCODING 295
SWIDTH 576 0
DWIDTH 16 0
BBX 18 19 -1 0
BITMAP
3C0F00
FFFFC0
FFFFC0
FFFFC0
3C0F00
3C0F00
3E1F00
3FFF00
3FFF00
3FFF00
3FFF00
3E1F00
3C0F00
3C0F00
3C0F00
3C0F00
3C0F00
3C0F00
3C0F00
ENDCHAR
STARTCHAR 0128
ENCODING 296
SWIDTH 216 0
DWIDTH 6 0
BBX 11 24 -2 0
BITMAP
3C20
FFE0
C7E0
8000
0000
1E00
1E00
1E00
1E00
1E00
1E00
1E00
1E00
1E00
1E00
1E00
1E00
1E00
1E00
1E00
1E00
1E00
1E00
1E00
ENDCHAR
STARTCHAR 0129
ENCODING 297
SWIDTH 216 0
DWIDTH 6 0
BBX 11 24 -2 0
BITMAP
3C20
FFE0
C7E0
8000
0000
1E00
1E00
1E00
1E00
1E00
1E00
1E00
1E00
1E00
1E00
1E00
1E00
1E00
1E00
1E00
1E00
1E00
1E00
1E00
ENDCHAR
STARTCHAR 012A
ENCODING 298
SWIDTH 216 0
DWIDTH 6 0
BBX 11 23 -2 0
BITMAP
FFE0
FFE0
FFE0
0000
1E00
1E00
1E00
1E00
1E00
1E00
1E00
1E00
1E00
1E00
1E00
1E00
1E00
1E00
1E00
1E00
1E00
1E00
1E00
ENDCHAR
STARTCHAR 012B
ENCODING 299
SWIDTH 216 0
DWIDTH 6 0
BBX 11 23 -2 0
BITMAP
FFE0
FFE0
FFE0
0000
1E00
1E00
1E00
1E00
1E00
1E00
1E00
1E00
1E00
1E00
1E00
1E00
1E00
1E00
1E00
1E00
1E00
1E00
1E00
ENDCHAR
STARTCHAR 012E
ENCODING 302
SWIDTH 216 0
DWIDTH 6 0
BBX 5 23 1 -4
BITMAP
F0
F0
F0
F0
F0
F0
F0
F0
F0
F0
F0
F0
F0
F0
F0
F0
F0
F0
F0
60
C0
D8
F0
ENDCHAR
STARTCHAR 012F
ENCODING 303
SWIDTH 216 0
DWIDTH 6 0
BBX 5 23 1 -4
BITMAP
F0
F0
F0
F0
F0
F0
F0
F0
F0
F0
F0
F0
F0
F0
F0
F0
F0
F0
F0
60
C0
D8
F0
ENDCHAR
STARTCHAR 0134
ENCODING 308
SWIDTH 504 0
DWIDTH 14 0
BBX 12 24 1 0
BITMAP
0FC0
1FE0
3870
3030
0000
3FF0
3FF0
3FF0
3FF0
00F0
00F0
00F0
00F0
00F0
00F0
00F0
00F0
00F0
00F0
F8F0
FFF0
7FF0
7FF0
3FF0
ENDCHAR
STARTCHAR 0135
ENCODING 309
SWIDTH 504 0
DWIDTH 14 0
BBX 12 24 1 0
BITMAP
0FC0
1FE0
3870
3030
0000
3FF0
3FF0
3FF0
3FF0
00F0
00F0
00F0
00F0
00F0
00F0
00F0
00F0
00F0
00F0
F8F0
FFF0
7FF0
7FF0
3FF0
ENDCHAR
STARTCHAR 0136
ENCODING 310
SWIDTH 540 0
DWIDTH 15 0
BBX 14 24 1 -5
BITMAP
F07C
F0FC
F0F8
F1F8
F3F0
F3E0
F7C0
FFC0
FF80
FF00
FF80
F7C0
F7E0
F3E0
F1F0
F1F8
F0FC
F07C
F07C
0000
0300
0300
0200
0600
ENDCHAR
STARTCHAR 0137
ENCODING 311
SWIDTH 540 0
DWIDTH 15 0
BBX 14 24 1 -5
BITMAP
F07C
F0FC
F0F8
F1F8
F3F0
F3E0
F7C0
FFC0
FF80
FF00
FF80
F7C0
F7E0
F3E0
F1F0
F1F8
F0FC
F07C
F07C
0000
0300
0300
0200
0600
ENDCHAR
STARTCHAR 0139
ENCODING 313
SWIDTH 396 0
DWIDTH 11 0
BBX 13 23 -1 0
BITMAP
FFC0
FC00
8000
0000
3C00
3C00
3C00
3C00
3C00
3C00
3C00
3C00
3C00
3C00
3C00
3C00
3C00
3C00
3E00
3FF8
3FF0
3FE0
3FE0
ENDCHAR
STARTCHAR 013A
ENCODING 314
SWIDTH 396 0
DWIDTH 11 0
BBX 13 23 -1 0
BITMAP
FFC0
FC00
8000
0000
3C00
3C00
3C00
3C00
3C00
3C00
3C00
3C00
3C00
3C00
3C00
3C00
3C00
3C00
3E00
3FF8
3FF0
3FE0
3FE0
ENDCHAR
STARTCHAR 013C
ENCODING 316
SWIDTH 396 0
DWIDTH 11 0
BBX 11 24 1 -5
BITMAP
F000
F000
F000
F000
F000
F000
F000
F000
F000
F000
F000
F000
F000
F000
F800
FFE0
FFC0
FF80
FF80
0000
0C00
0C00
0C00
1800
ENDCHAR
STARTCHAR 013D
ENCODING 317
SWIDTH 396 0
DWIDTH 11 0
BBX 12 24 0 0
BITMAP
8600
CE00
7C00
3800
0000
7800
7800
7800
7800
7800
7800
7800
7800
7800
7800
7800
7800
7800
7800
7C00
7FF0
7FE0
7FC0
7FC0
ENDCHAR
STARTCHAR 013E
ENCODING 318
SWIDTH 396 0
DWIDTH 11 0
BBX 12 24 0 0
BITMAP
8600
CE00
7C00
3800
0000
7800
7800
7800
7800
7800
7800
7800
7800
7800
7800
7800
7800
7800
7800
7C00
7FF0
7FE0
7FC0
7FC0
ENDCHAR
STARTCHAR 0141
ENCODING 321
SWIDTH 504 0
DWIDTH 14 0
BBX 13 19 1 0
BITMAP
1E00
1E00
1E00
1E00
1E40
1FC0
1FC0
1F80
3E00
FE00
FE00
DE00
1E00
1E00
1F00
1FF8
1FF8
1FF0
1FE0
ENDCHAR
STARTCHAR 0142
ENCODING 322
SWIDTH 504 0
DWIDTH 14 0
BBX 13 19 1 0
BITMAP
1E00
1E00
1E00
1E00
1E40
1FC0
1FC0
1F80
3E00
FE00
FE00
DE00
1E00
1E00
1F00
1FF8
1FF8
1FF0
1FE0
ENDCHAR
STARTCHAR 0143
ENCODING 323
SWIDTH 540 0
DWIDTH 15 0
BBX 14 23 1 0
BITMAP
1FF0
3F80
3000
0000
387C
787C
FC7C
FC7C
FE7C
FE7C
FF7C
FF7C
FF7C
F7FC
F3FC
F3FC
F1FC
F1FC
F1FC
F0FC
F0F8
F078
F070
ENDCHAR
STARTCHAR 0144
ENCODING 324
SWIDTH 540 0
DWIDTH 15 0
BBX 14 23 1 0
BITMAP
1FF0
3F80
3000
0000
387C
787C
FC7C
FC7C
FE7C
FE7C
FF7C
FF7C
FF7C
F7FC
F3FC
F3FC
F1FC
F1FC
F1FC
F0FC
F0F8
F078
F070
ENDCHAR
STARTCHAR 0145
ENCODING 325
SWIDTH 540 0
DWIDTH 15 0
BBX 14 24 1 -5
BITMAP
387C
787C
FC7C
FC7C
FE7C
FE7C
FF7C
FF7C
FF7C
F7FC
F3FC
F3FC
F1FC
F1FC
F1FC
F0FC
F0F8
F078
F070
0000
0100
0100
0300
0600
ENDCHAR
STARTCHAR 0146
ENCODING 326
SWIDTH 540 0
DWIDTH 15 0
BBX 14 24 1 -5
BITMAP
387C
787C
FC7C
FC7C
FE7C
FE7C
FF7C
FF7C
FF7C
F7FC
F3FC
F3FC
F1FC
F1FC
F1FC
F0FC
F0F8
F078
F070
0000
0100
0100
0300
0600
ENDCHAR
STARTCHAR 0147
ENCODING 327
SWIDTH 540 0
DWIDTH 15 0
BBX 14 24 1 0
BITMAP
1860
1CE0
0FC0
0780
0000
387C
787C
FC7C
FC7C
FE7C
FE7C
FF7C
FF7C
FF7C
F7FC
F3FC
F3FC
F1FC
F1FC
F1FC
F0FC
F0F8
F078
F070
ENDCHAR
STARTCHAR 0148
ENCODING 328
SWIDTH 540 0
DWIDTH 15 0
BBX 14 24 1 0
BITMAP
1860
1CE0
0FC0
0780
0000
387C
787C
FC7C
FC7C
FE7C
FE7C
FF7C
FF7C
FF7C
F7FC
F3FC
F3FC
F1FC
F1FC
F1FC
F0FC
F0F8
F078
F070
ENDCHAR
STARTCHAR 014C
ENCODING 332
SWIDTH 612 0
DWIDTH 17 0
BBX 15 23 1 0
BITMAP
3FF8
3FF8
3FF8
0000
3FFC
7FFC
FFFE
FFFE
F81E
F01E
F01E
F01E
F01E
F01E
F01E
F01E
F01E
F01E
F83E
FFFE
7FFE
7FFC
3FF8
ENDCHAR
STARTCHAR 014D
ENCODING 333
SWIDTH 612 0
DWIDTH 17 0
BBX 15 23 1 0
BITMAP
3FF8
3FF8
3FF8
0000
3FFC
7FFC
FFFE
FFFE
F81E
F01E
F01E
F01E
F01E
F01E
F01E
F01E
F01E
F01E
F83E
FFFE
7FFE
7FFC
3FF8
ENDCHAR
STARTCHAR 0150
ENCODING 336
SWIDTH 612 0
DWIDTH 17 0
BBX 15 25 1 0
BITMAP
0160
0160
0360
06C0
06C0
0000
3FFC
7FFC
FFFE
FFFE
F81E
F01E
F01E
F01E
F01E
F01E
F01E
F01E
F01E
F01E
F83E
FFFE
7FFE
7FFC
3FF8
ENDCHAR
STARTCHAR 0151
ENCODING 337
SWIDTH 612 0
DWIDTH 17 0
BBX 15 25 1 0
BITMAP
0160
0160
0360
06C0
06C0
0000
3FFC
7FFC
FFFE
FFFE
F81E
F01E
F01E
F01E
F01E
F01E
F01E
F01E
F01E
F01E
F83E
FFFE
7FFE
7FFC
3FF8
ENDCHAR
STARTCHAR 0152
ENCODING 338
SWIDTH 828 0
DWIDTH 23 0
BBX 22 19 1 0
BITMAP
3FFFF0
7FFFF8
FFFFFC
FFFFFC
F8783C
F07800
F07800
F07800
F07FC0
F07FC0
F07FC0
F07800
F07800
F07800
F8783C
FFFFFC
7FFFF8
7FFFF8
3FFFF0
ENDCHAR
STARTCHAR 0153
ENCODING 339
SWIDTH 828 0
DWIDTH 23 0
BBX 22 19 1 0
BITMAP
3FFFF0
7FFFF8
FFFFFC
FFFFFC
F8783C
F07800
F07800
F07800
F07FC0
F07FC0
F07FC0
F07800
F07800
F07800
F8783C
FFFFFC
7FFFF8
7FFFF8
3FFFF0
ENDCHAR
STARTCHAR 0154
ENCODING 340
SWIDTH 540 0
DWIDTH 15 0
BBX 13 23 1 0
BITMAP
3FF0
3F00
2000
0000
FFE0
FFF0
FFF8
FFF8
F0F8
F078
F078
FFF8
FFF0
FFE0
FFE0
FFE0
F1F0
F1F0
F0F0
F0F8
F0F8
F078
F078
ENDCHAR
STARTCHAR 0155
ENCODING 341
SWIDTH 540 0
DWIDTH 15 0
BBX 13 23 1 0
BITMAP
3FF0
3F00
2000
0000
FFE0
FFF0
FFF8
FFF8
F0F8
F078
F078
FFF8
FFF0
FFE0
FFE0
FFE0
F1F0
F1F0
F0F0
F0F8
F0F8
F078
F078
ENDCHAR
STARTCHAR 0156
ENCODING 342
SWIDTH 540 0
DWIDTH 15 0
BBX 13 24 1 -5
BITMAP
FFE0
FFF0
FFF8
FFF8
F0F8
F078
F078
FFF8
FFF0
FFE0
FFE0
FFE0
F1F0
F1F0
F0F0
F0F8
F0F8
F078
F078
0000
0300
0300
0200
0600
ENDCHAR
STARTCHAR 0157
ENCODING 343
SWIDTH 540 0
DWIDTH 15 0
BBX 13 24 1 -5
BITMAP
FFE0
FFF0
FFF8
FFF8
F0F8
F078
F078
FFF8
FFF0
FFE0
FFE0
FFE0
F1F0
F1F0
F0F0
F0F8
F0F8
F078
F078
0000
0300
0300
0200
0600
ENDCHAR
STARTCHAR 0158
ENCODING 344
SWIDTH 540 0
DWIDTH 15 0
BBX 13 24 1 0
BITMAP
30C0
39C0
1F80
0F00
0000
FFE0
FFF0
FFF8
FFF8
F0F8
F078
F078
FFF8
FFF0
FFE0
FFE0
FFE0
F1F0
F1F0
F0F0
F0F8
F0F8
F078
F078
ENDCHAR
STARTCHAR 0159
ENCODING 345
SWIDTH 540 0
DWIDTH 15 0
BBX 13 24 1 0
BITMAP
30C0
39C0
1F80
0F00
0000
FFE0
FFF0
FFF8
FFF8
F0F8
F078
F078
FFF8
FFF0
FFE0
FFE0
FFE0
F1F0
F1F0
F0F0
F0F8
F0F8
F078
F078
ENDCHAR
STARTCHAR 015C
ENCODING 348
SWIDTH 540 0
DWIDTH 15 0
BBX 13 24 1 0
BITMAP
3FC0
7FE0
E0F0
C070
0000
FFE0
FFF0
FFF8
FFF8
F878
FC00
7E00
3F00
1F80
0FC0
07E0
03F0
01F8
00F8
F078
FFF8
7FF8
7FF8
3FF8
ENDCHAR
STARTCHAR 015D
ENCODING 349
SWIDTH 540 0
DWIDTH 15 0
BBX 13 24 1 0
BITMAP
3FC0
7FE0
E0F0
C070
0000
FFE0
FFF0
FFF8
FFF8
F878
FC00
7E00
3F00
1F80
0FC0
07E0
03F0
01F8
00F8
F078
FFF8
7FF8
7FF8
3FF8
ENDCHAR
STARTCHAR 015E
ENCODING 350
SWIDTH 540 0
DWIDTH 15 0
BBX 13 23 1 -4
BITMAP
FFE0
FFF0
FFF8
FFF8
F878
FC00
7E00
3F00
1F80
0FC0
07E0
03F0
01F8
00F8
F078
FFF8
7FF8
7FF8
3FF8
0180
0300
0100
0F00
ENDCHAR
STARTCHAR 015F
ENCODING 351
SWIDTH 540 0
DWIDTH 15 0
BBX 13 23 1 -4
BITMAP
FFE0
FFF0
FFF8
FFF8
F878
FC00
7E00
3F00
1F80
0FC0
07E0
03F0
01F8
00F8
F078
FFF8
7FF8
7FF8
3FF8
0180
0300
0100
0F00
ENDCHAR
STARTCHAR 0160
ENCODING 352
SWIDTH 540 0
DWIDTH 15 0
BBX 13 24 1 0
BITMAP
10C0
19C0
0F80
0700
0000
FFE0
FFF0
FFF8
FFF8
F878
FC00
7E00
3F00
1F80
0FC0
07E0
03F0
01F8
00F8
F078
FFF8
7FF8
7FF8
3FF8
ENDCHAR
STARTCHAR 0161
ENCODING 353
SWIDTH 540 0
DWIDTH 15 0
BBX 13 24 1 0
BITMAP
30C0
39C0
1F80
0700
0000
FFE0
FFF0
FFF8
FFF8
F878
FC00
7E00
3F00
1F80
0FC0
07E0
03F0
01F8
00F8
F078
FFF8
7FF8
7FF8
3FF8
ENDCHAR
STARTCHAR 0162
ENCODING 354
SWIDTH 504 0
DWIDTH 14 0
BBX 15 23 0 -4
BITMAP
3FF8
7FFC
FFFE
FFFE
E7DE
07C0
07C0
07C0
07C0
07C0
07C0
07C0
07C0
07C0
07C0
07C0
07C0
07C0
07C0
0080
0380
0180
0780
ENDCHAR
STARTCHAR 0163
ENCODING 355
SWIDTH 504 0
DWIDTH 14 0
BBX 15 23 0 -4
BITMAP
3FF8
7FFC
FFFE
FFFE
E7DE
07C0
07C0
07C0
07C0
07C0
07C0
07C0
07C0
07C0
07C0
07C0
07C0
07C0
07C0
0080
0380
0180
0780
ENDCHAR
STARTCHAR 0164
ENCODING 356
SWIDTH 504 0
DWIDTH 14 0
BBX 15 24 0 0
BITMAP
0860
0CE0
07C0
0380
0000
3FF8
7FFC
FFFE
FFFE
E7DE
07C0
07C0
07C0
07C0
07C0
07C0
07C0
07C0
07C0
07C0
07C0
07C0
07C0
07C0
ENDCHAR
STARTCHAR 0165
ENCODING 357
SWIDTH 504 0
DWIDTH 14 0
BBX 15 24 0 0
BITMAP
0860
0CE0
07C0
0380
0000
3FF8
7FFC
FFFE
FFFE
E7DE
07C0
07C0
07C0
07C0
07C0
07C0
07C0
07C0
07C0
07C0
07C0
07C0
07C0
07C0
ENDCHAR
STARTCHAR 0166
ENCODING 358
SWIDTH 504 0
DWIDTH 14 0
BBX 15 19 0 0
BITMAP
3FF8
7FFC
FFFE
FFFE
E7DE
07C0
07C0
07C0
3FF8
3FF8
3FF8
07C0
07C0
07C0
07C0
07C0
07C0
07C0
07C0
ENDCHAR
STARTCHAR 0167
ENCODING 359
SWIDTH 504 0
DWIDTH 14 0
BBX 15 19 0 0
BITMAP
3FF8
7FFC
FFFE
FFFE
E7DE
07C0
07C0
07C0
3FF8
3FF8
3FF8
07C0
07C0
07C0
07C0
07C0
07C0
07C0
07C0
ENDCHAR
STARTCHAR 0168
ENCODING 360
SWIDTH 612 0
DWIDTH 17 0
BBX 15 24 1 0
BITMAP
0F08
3FF8
38F8
2000
0000
F01E
F01E
F01E
F01E
F01E
F01E
F01E
F01E
F01E
F01E
F01E
F01E
F01E
F01E
F83E
FFFE
7FFE
7FFC
3FF8
ENDCHAR
STARTCHAR 0169
ENCODING 361
SWIDTH 612 0
DWIDTH 17 0
BBX 15 24 1 0
BITMAP
0F08
3FF8
30F8
2000
0000
F01E
F01E
F01E
F01E
F01E
F01E
F01E
F01E
F01E
F01E
F01E
F01E
F01E
F01E
F83E
FFFE
7FFE
7FFC
3FF8
ENDCHAR
STARTCHAR 016A
ENCODING 362
SWIDTH 612 0
DWIDTH 17 0
BBX 15 23 1 0
BITMAP
3FF8
3FF8
3FF8
0000
F01E
F01E
F01E
F01E
F01E
F01E
F01E
F01E
F01E
F01E
F01E
F01E
F01E
F01E
F83E
FFFE
7FFE
7FFC
3FF8
ENDCHAR
STARTCHAR 016B
ENCODING 363
SWIDTH 612 0
DWIDTH 17 0
BBX 15 23 1 0
BITMAP
3FF8
3FF8
3FF8
0000
F01E
F01E
F01E
F01E
F01E
F01E
F01E
F01E
F01E
F01E
F01E
F01E
F01E
F01E
F83E
FFFE
7FFE
7FFC
3FF8
ENDCHAR
STARTCHAR 016E
ENCODING 366
SWIDTH 612 0
DWIDTH 17 0
BBX 15 25 1 0
BITMAP
0380
07C0
06C0
07C0
0380
0000
F01E
F01E
F01E
F01E
F01E
F01E
F01E
F01E
F01E
F01E
F01E
F01E
F01E
F01E
F83E
FFFE
7FFE
7FFC
3FF8
ENDCHAR
STARTCHAR 016F
ENCODING 367
SWIDTH 612 0
DWIDTH 17 0
BBX 15 25 1 0
BITMAP
0380
07C0
06C0
07C0
0380
0000
F01E
F01E
F01E
F01E
F01E
F01E
F01E
F01E
F01E
F01E
F01E
F01E
F01E
F01E
F83E
FFFE
7FFE
7FFC
3FF8
ENDCHAR
STARTCHAR 0170
ENCODING 368
SWIDTH 612 0
DWIDTH 17 0
BBX 15 25 1 0
BITMAP
0160
0360
0360
06C0
06C0
0000
F01E
F01E
F01E
F01E
F01E
F01E
F01E
F01E
F01E
F01E
F01E
F01E
F01E
F01E
F83E
FFFE
7FFE
7FFC
3FF8
ENDCHAR
STARTCHAR 0171
ENCODING 369
SWIDTH 612 0
DWIDTH 17 0
BBX 15 25 1 0
BITMAP
0160
0360
0360
06C0
06C0
0000
F01E
F01E
F01E
F01E
F01E
F01E
F01E
F01E
F01E
F01E
F01E
F01E
F01E
F01E
F83E
FFFE
7FFE
7FFC
3FF8
ENDCHAR
STARTCHAR 0172
ENCODING 370
SWIDTH 612 0
DWIDTH 17 0
BBX 15 23 1 -4
BITMAP
F01E
F01E
F01E
F01E
F01E
F01E
F01E
F01E
F01E
F01E
F01E
F01E
F01E
F01E
F83E
FFFE
7FFE
7FFC
3FF8
0300
0200
06C0
07C0
ENDCHAR
STARTCHAR 0173
ENCODING 371
SWIDTH 612 0
DWIDTH 17 0
BBX 15 23 1 -4
BITMAP
F01E
F01E
F01E
F01E
F01E
F01E
F01E
F01E
F01E
F01E
F01E
F01E
F01E
F01E
F83E
FFFE
7FFE
7FFC
3FF8
0300
0200
06C0
07C0
ENDCHAR
STARTCHAR 0174
ENCODING 372
SWIDTH 864 0
DWIDTH 24 0
BBX 22 24 1 0
BITMAP
01FE00
03FF00
078380
070180
000000
F8003C
F8003C
F8003C
F8007C
78007C
7C787C
7C7C78
7C7C78
3CFC78
3CEEF8
3CEEF8
3EEEF0
3FEFF0
1FCFF0
1FC7F0
1FC7F0
1FC7E0
1FC7E0
0F87E0
ENDCHAR
STARTCHAR 0175
ENCODING 373
SWIDTH 864 0
DWIDTH 24 0
BBX 22 24 1 0
BITMAP
01FE00
03FF00
078380
070180
000000
F8003C
F8003C
F8003C
F8007C
78007C
7C787C
7C7C78
7C7C78
3CFC78
3CEEF8
3CEEF8
3EEEF0
3FEFF0
1FCFF0
1FC7F0
1FC7F0
1FC7E0
1FC7E0
0F87E0
ENDCHAR
STARTCHAR 0176
ENCODING 374
SWIDTH 468 0
DWIDTH 13 0
BBX 13 24 0 0
BITMAP
1FE0
3FF0
7070
6030
0000
F078
F8F8
F8F8
78F0
7DF0
3DE0
3DE0
1FC0
1FC0
0FC0
0F80
0F80
0F80
0F80
0F80
0F80
0F80
0F80
0F80
ENDCHAR
STARTCHAR 0177
ENCODING 375
SWIDTH 468 0
DWIDTH 13 0
BBX 13 24 0 0
BITMAP
1FE0
3FF0
7070
6030
0000
F078
F8F8
F8F8
78F0
7DF0
3DE0
3DE0
1FC0
1FC0
0FC0
0F80
0F80
0F80
0F80
0F80
0F80
0F80
0F80
0F80
ENDCHAR
STARTCHAR 0178
ENCODING 376
SWIDTH 468 0
DWIDTH 13 0
BBX 13 23 0 0
BITMAP
1CC0
1CC0
1CC0
0000
F078
F8F8
F8F8
78F0
7DF0
3DE0
3DE0
1FC0
1FC0
0FC0
0F80
0F80
0F80
0F80
0F80
0F80
0F80
0F80
0F80
ENDCHAR
STARTCHAR 017B
ENCODING 379
SWIDTH 540 0
DWIDTH 15 0
BBX 14 24 1 0
BITMAP
0300
0780
0780
0300
0000
FFF0
FFF8
FFFC
7FF8
01F8
03F0
03E0
07E0
07C0
0F80
1F80
1F00
3F00
3E00
7C00
FFFC
7FFC
7FFC
3FFC
ENDCHAR
STARTCHAR 017C
ENCODING 380
SWIDTH 540 0
DWIDTH 15 0
BBX 14 25 1 0
BITMAP
0700
0780
0780
0000
0000
0000
FFF0
FFF8
FFFC
7FF8
01F8
03F0
03E0
07E0
07C0
0F80
1F80
1F00
3F00
3E00
7C00
FFFC
7FFC
7FFC
3FFC
ENDCHAR
STARTCHAR 017D
ENCODING 381
SWIDTH 540 0
DWIDTH 15 0
BBX 14 24 1 0
BITMAP
1860
1CE0
0FC0
0780
0000
FFF0
FFF8
FFFC
7FF8
01F8
03F0
03E0
07E0
07C0
0F80
1F80
1F00
3F00
3E00
7C00
FFFC
7FFC
7FFC
3FFC
ENDCHAR
STARTCHAR 017E
ENCODING 382
SWIDTH 540 0
DWIDTH 15 0
BBX 14 24 1 0
BITMAP
1860
1CE0
0FC0
0780
0000
FFF0
FFF8
FFFC
7FF8
01F8
03F0
03E0
07E0
07C0
0F80
1F80
1F00
3F00
3E00
7C00
FFFC
7FFC
7FFC
3FFC
ENDCHAR
STARTCHAR 01A0
ENCODING 416
SWIDTH 612 0
DWIDTH 17 0
BBX 16 21 1 0
BITMAP
0003
0007
3FFF
7FFE
FFFE
FFFE
F81E
F01E
F01E
F01E
F01E
F01E
F01E
F01E
F01E
F01E
F83E
FFFE
7FFE
7FFC
3FF8
ENDCHAR
STARTCHAR 01A1
ENCODING 417
SWIDTH 612 0
DWIDTH 17 0
BBX 16 21 1 0
BITMAP
0003
0007
3FFF
7FFE
FFFE
FFFE
F81E
F01E
F01E
F01E
F01E
F01E
F01E
F01E
F01E
F01E
F83E
FFFE
7FFE
7FFC
3FF8
ENDCHAR
STARTCHAR 01AF
ENCODING 431
SWIDTH 612 0
DWIDTH 17 0
BBX 16 21 1 0
BITMAP
0003
0007
F01F
F01C
F01E
F01E
F01E
F01E
F01E
F01E
F01E
F01E
F01E
F01E
F01E
F01E
F83E
FFFE
7FFE
7FFC
3FF8
ENDCHAR
STARTCHAR 01B0
ENCODING 432
SWIDTH 612 0
DWIDTH 17 0
BBX 16 21 1 0
BITMAP
0003
0007
F01F
F01C
F01E
F01E
F01E
F01E
F01E
F01E
F01E
F01E
F01E
F01E
F01E
F01E
F83E
FFFE
7FFE
7FFC
3FF8
ENDCHAR
STARTCHAR 0218
ENCODING 536
SWIDTH 540 0
DWIDTH 15 0
BBX 13 24 1 -5
BITMAP
FFE0
FFF0
FFF8
FFF8
F878
FC00
7E00
3F00
1F80
0FC0
07E0
03F0
01F8
00F8
F078
FFF8
7FF8
7FF8
3FF8
0000
0300
0300
0200
0600
ENDCHAR
STARTCHAR 0219
ENCODING 537
SWIDTH 540 0
DWIDTH 15 0
BBX 13 24 1 -5
BITMAP
FFE0
FFF0
FFF8
FFF8
F878
FC00
7E00
3F00
1F80
0FC0
07E0
03F0
01F8
00F8
F078
FFF8
7FF8
7FF8
3FF8
0000
0300
0300
0200
0600
ENDCHAR
STARTCHAR 021A
ENCODING 538
SWIDTH 504 0
DWIDTH 14 0
BBX 15 24 0 -5
BITMAP
3FF8
7FFC
FFFE
FFFE
E7DE
07C0
07C0
07C0
07C0
07C0
07C0
07C0
07C0
07C0
07C0
07C0
07C0
07C0
07C0
0000
0100
0100
0300
0600
ENDCHAR
STARTCHAR 021B
ENCODING 539
SWIDTH 504 0
DWIDTH 14 0
BBX 15 24 0 -5
BITMAP
3FF8
7FFC
FFFE
FFFE
E7DE
07C0
07C0
07C0
07C0
07C0
07C0
07C0
07C0
07C0
07C0
07C0
07C0
07C0
07C0
0000
0100
0100
0300
0600
ENDCHAR
STARTCHAR 0259
ENCODING 601
SWIDTH 540 0
DWIDTH 15 0
BBX 13 19 1 0
BITMAP
3FF8
7FF8
FFF8
FFF8
F078
0078
0078
0078
FE78
FE78
FE78
FE78
F078
F078
F078
FFF8
FFF8
FFF8
FFF8
ENDCHAR
STARTCHAR 02C6
ENCODING 710
SWIDTH 432 0
DWIDTH 12 0
BBX 11 4 1 20
BITMAP
7F80
FFC0
E0E0
C060
ENDCHAR
STARTCHAR 02C7
ENCODING 711
SWIDTH 288 0
DWIDTH 8 0
BBX 7 4 1 20
BITMAP
86
CE
7C
38
ENDCHAR
STARTCHAR 02D8
ENCODING 728
SWIDTH 432 0
DWIDTH 12 0
BBX 11 4 1 20
BITMAP
C0E0
FFE0
7FC0
3F80
ENDCHAR
STARTCHAR 02D9
ENCODING 729
SWIDTH 144 0
DWIDTH 4 0
BBX 3 3 1 22
BITMAP
E0
E0
E0
ENDCHAR
STARTCHAR 02DA
ENCODING 730
SWIDTH 180 0
DWIDTH 5 0
BBX 4 5 1 20
BITMAP
E0
F0
B0
F0
E0
ENDCHAR
STARTCHAR 02DB
ENCODING 731
SWIDTH 216 0
DWIDTH 6 0
BBX 4 4 1 -4
BITMAP
60
C0
D0
F0
ENDCHAR
STARTCHAR 02DC
ENCODING 732
SWIDTH 432 0
DWIDTH 12 0
BBX 11 4 1 20
BITMAP
3C20
FFE0
C7E0
8000
ENDCHAR
STARTCHAR 02DD
ENCODING 733
SWIDTH 252 0
DWIDTH 7 0
BBX 6 5 1 20
BITMAP
6C
6C
D8
D8
B0
ENDCHAR
STARTCHAR 1E20
ENCODING 7712
SWIDTH 540 0
DWIDTH 15 0
BBX 13 23 1 0
BITMAP
FFF0
FFF0
FFF0
0000
FFF0
FFF0
FFF8
FFF8
F078
F000
F000
F000
F1F8
F1F8
F1F8
F1F8
F078
F078
F078
FFF8
FFF8
FFF8
FFD8
ENDCHAR
STARTCHAR 1E3E
ENCODING 7742
SWIDTH 684 0
DWIDTH 19 0
BBX 17 23 1 0
BITMAP
0FFC00
0FE000
0C0000
000000
3E3F00
7E3F00
FE3F80
FF3F80
FF3F80
FF7F80
F77780
F77780
F37780
F37780
F3E780
F3E780
F3E780
F3E780
F00780
F00780
F00780
F00780
F00780
ENDCHAR
STARTCHAR 1E3F
ENCODING 7743
SWIDTH 684 0
DWIDTH 19 0
BBX 17 23 1 0
BITMAP
0FFC00
0FE000
0C0000
000000
3E3F00
7E3F00
FE3F80
FF3F80
FF3F80
FF7F80
F77780
F77780
F37780
F37780
F3E780
F3E780
F3E780
F3E780
F00780
F00780
F00780
F00780
F00780
ENDCHAR
STARTCHAR 1E44
ENCODING 7748
SWIDTH 540 0
DWIDTH 15 0
BBX 14 24 1 0
BITMAP
0300
0780
0780
0300
0000
387C
787C
FC7C
FC7C
FE7C
FE7C
FF7C
FF7C
FF7C
F7FC
F3FC
F3FC
F1FC
F1FC
F1FC
F0FC
F0F8
F078
F070
ENDCHAR
STARTCHAR 1E45
ENCODING 7749
SWIDTH 540 0
DWIDTH 15 0
BBX 14 24 1 0
BITMAP
0300
0780
0780
0300
0000
387C
787C
FC7C
FC7C
FE7C
FE7C
FF7C
FF7C
FF7C
F7FC
F3FC
F3FC
F1FC
F1FC
F1FC
F0FC
F0F8
F078
F070
ENDCHAR
STARTCHAR 1E80
ENCODING 7808
SWIDTH 864 0
DWIDTH 24 0
BBX 22 23 1 0
BITMAP
03F800
01FF00
000000
000000
F8003C
F8003C
F8003C
F8007C
78007C
7C787C
7C7C78
7C7C78
3CFC78
3CEEF8
3CEEF8
3EEEF0
3FEFF0
1FCFF0
1FC7F0
1FC7F0
1FC7E0
1FC7E0
0F87E0
ENDCHAR
STARTCHAR 1E81
ENCODING 7809
SWIDTH 864 0
DWIDTH 24 0
BBX 22 23 1 0
BITMAP
03F800
01FF00
000000
000000
F8003C
F8003C
F8003C
F8007C
78007C
7C787C
7C7C78
7C7C78
3CFC78
3CEEF8
3CEEF8
3EEEF0
3FEFF0
1FCFF0
1FC7F0
1FC7F0
1FC7E0
1FC7E0
0F87E0
ENDCHAR
STARTCHAR 1E82
ENCODING 7810
SWIDTH 864 0
DWIDTH 24 0
BBX 22 23 1 0
BITMAP
01FF00
03F800
030000
000000
F8003C
F8003C
F8003C
F8007C
78007C
7C787C
7C7C78
7C7C78
3CFC78
3CEEF8
3CEEF8
3EEEF0
3FEFF0
1FCFF0
1FC7F0
1FC7F0
1FC7E0
1FC7E0
0F87E0
ENDCHAR
STARTCHAR 1E83
ENCODING 7811
SWIDTH 864 0
DWIDTH 24 0
BBX 22 23 1 0
BITMAP
01FF00
03F800
030000
000000
F8003C
F8003C
F8003C
F8007C
78007C
7C787C
7C7C78
7C7C78
3CFC78
3CEEF8
3CEEF8
3EEEF0
3FEFF0
1FCFF0
1FC7F0
1FC7F0
1FC7E0
1FC7E0
0F87E0
ENDCHAR
STARTCHAR 1E84
ENCODING 7812
SWIDTH 864 0
DWIDTH 24 0
BBX 22 23 1 0
BITMAP
00CE00
00CE00
00CE00
000000
F8003C
F8003C
F8003C
F8007C
78007C
7C787C
7C7C78
7C7C78
3CFC78
3CEEF8
3CEEF8
3EEEF0
3FEFF0
1FCFF0
1FC7F0
1FC7F0
1FC7E0
1FC7E0
0F87E0
ENDCHAR
STARTCHAR 1E85
ENCODING 7813
SWIDTH 864 0
DWIDTH 24 0
BBX 22 23 1 0
BITMAP
00CE00
00CE00
00CE00
000000
F8003C
F8003C
F8003C
F8007C
78007C
7C787C
7C7C78
7C7C78
3CFC78
3CEEF8
3CEEF8
3EEEF0
3FEFF0
1FCFF0
1FC7F0
1FC7F0
1FC7E0
1FC7E0
0F87E0
ENDCHAR
STARTCHAR 1EA0
ENCODING 7840
SWIDTH 576 0
DWIDTH 16 0
BBX 16 22 0 -3
BITMAP
0FF0
0FF8
0FF8
1FF8
1E78
1E38
1E3C
1C3C
3C3C
3C3C
3C3C
3C3E
3FFE
7FFE
7BFE
781E
781F
781F
F80F
0000
03C0
03C0
ENDCHAR
STARTCHAR 1EA1
ENCODING 7841
SWIDTH 576 0
DWIDTH 16 0
BBX 16 22 0 -3
BITMAP
0FF0
0FF8
0FF8
1FF8
1E78
1E38
1E3C
1C3C
3C3C
3C3C
3C3C
3C3E
3FFE
7FFE
7BFE
781E
781F
781F
F80F
0000
03C0
03C0
ENDCHAR
STARTCHAR 1EA2
ENCODING 7842
SWIDTH 576 0
DWIDTH 16 0
BBX 16 25 0 0
BITMAP
03C0
03E0
00C0
0080
0080
0000
0FF0
0FF8
0FF8
1FF8
1E78
1E38
1E3C
1C3C
3C3C
3C3C
3C3C
3C3E
3FFE
7FFE
7BFE
781E
781F
781F
F80F
ENDCHAR
STARTCHAR 1EA3
ENCODING 7843
SWIDTH 576 0
DWIDTH 16 0
BBX 16 25 0 0
BITMAP
03C0
03E0
00C0
0080
0080
0000
0FF0
0FF8
0FF8
1FF8
1E78
1E38
1E3C
1C3C
3C3C
3C3C
3C3C
3C3E
3FFE
7FFE
7BFE
781E
781F
781F
F80F
ENDCHAR
STARTCHAR 1EA4
ENCODING 7844
SWIDTH 576 0
DWIDTH 16 0
BBX 16 28 0 0
BITMAP
01F8
1FF0
1E00
0000
0FF0
1FF8
383C
300C
0000
0FF0
0FF8
0FF8
1FF8
1E78
1E38
1E3C
1C3C
3C3C
3C3C
3C3C
3C3E
3FFE
7FFE
7BFE
781E
781F
781F
F80F
ENDCHAR
STARTCHAR 1EA5
ENCODING 7845
SWIDTH 576 0
DWIDTH 16 0
BBX 16 28 0 0
BITMAP
01F8
1FF0
1E00
0000
0FF0
1FF8
383C
300C
0000
0FF0
0FF8
0FF8
1FF8
1E78
1E38
1E3C
1C3C
3C3C
3C3C
3C3C
3C3E
3FFE
7FFE
7BFE
781E
781F
781F
F80F
ENDCHAR
STARTCHAR 1EA6
ENCODING 7846
SWIDTH 576 0
DWIDTH 16 0
BBX 16 28 0 0
BITMAP
1E00
1FF0
03F8
0000
0FF0
1FF8
383C
300C
0000
0FF0
0FF8
0FF8
1FF8
1E78
1E38
1E3C
1C3C
3C3C
3C3C
3C3C
3C3E
3FFE
7FFE
7BFE
781E
781F
781F
F80F
ENDCHAR
STARTCHAR 1EA7
ENCODING 7847
SWIDTH 576 0
DWIDTH 16 0
BBX 16 28 0 0
BITMAP
1E00
1FF0
03F8
0000
0FF0
1FF8
383C
300C
0000
0FF0
0FF8
0FF8
1FF8
1E78
1E38
1E3C
1C3C
3C3C
3C3C
3C3C
3C3E
3FFE
7FFE
7BFE
781E
781F
781F
F80F
ENDCHAR
STARTCHAR 1EA8
ENCODING 7848
SWIDTH 576 0
DWIDTH 16 0
BBX 16 30 0 0
BITMAP
03C0
03E0
0240
00C0
0080
0000
0FF0
1FF8
383C
300C
0000
0FF0
0FF8
0FF8
1FF8
1E78
1E38
1E3C
1C3C
3C3C
3C3C
3C3C
3C3E
3FFE
7FFE
7BFE
781E
781F
781F
F80F
ENDCHAR
STARTCHAR 1EA9
ENCODING 7849
SWIDTH 576 0
DWIDTH 16 0
BBX 16 30 0 0
BITMAP
03C0
03E0
0240
00C0
0080
0000
0FF0
1FF8
383C
300C
0000
0FF0
0FF8
0FF8
1FF8
1E78
1E38
1E3C
1C3C
3C3C
3C3C
3C3C
3C3E
3FFE
7FFE
7BFE
781E
781F
781F
F80F
ENDCHAR
STARTCHAR 1EAA
ENCODING 7850
SWIDTH 576 0
DWIDTH 16 0
BBX 16 29 0 0
BITMAP
0600
1FCC
3DFC
3030
0000
0FF0
1FF8
383C
300C
0000
0FF0
0FF8
0FF8
1FF8
1E78
1E38
1E3C
1C3C
3C3C
3C3C
3C3C
3C3E
3FFE
7FFE
7BFE
781E
781F
781F
F80F
ENDCHAR
STARTCHAR 1EAB
ENCODING 7851
SWIDTH 576 0
DWIDTH 16 0
BBX 16 29 0 0
BITMAP
0600
1FCC
3DFC
3030
0000
0FF0
1FF8
383C
300C
0000
0FF0
0FF8
0FF8
1FF8
1E78
1E38
1E3C
1C3C
3C3C
3C3C
3C3C
3C3E
3FFE
7FFE
7BFE
781E
781F
781F
F80F
ENDCHAR
STARTCHAR 1EAC
ENCODING 7852
SWIDTH 576 0
DWIDTH 16 0
BBX 16 27 0 -3
BITMAP
0FF0
1FF8
383C
300C
0000
0FF0
0FF8
0FF8
1FF8
1E78
1E38
1E3C
1C3C
3C3C
3C3C
3C3C
3C3E
3FFE
7FFE
7BFE
781E
781F
781F
F80F
0000
03C0
03C0
ENDCHAR
STARTCHAR 1EAD
ENCODING 7853
SWIDTH 576 0
DWIDTH 16 0
BBX 16 27 0 -3
BITMAP
0FF0
1FF8
383C
300C
0000
0FF0
0FF8
0FF8
1FF8
1E78
1E38
1E3C
1C3C
3C3C
3C3C
3C3C
3C3E
3FFE
7FFE
7BFE
781E
781F
781F
F80F
0000
03C0
03C0
ENDCHAR
STARTCHAR 1EAE
ENCODING 7854
SWIDTH 576 0
DWIDTH 16 0
BBX 16 28 0 0
BITMAP
01F8
1FF0
1E00
0000
381C
3FFC
1FF8
0FE0
0000
0FF0
0FF8
0FF8
1FF8
1E78
1E38
1E3C
1C3C
3C3C
3C3C
3C3C
3C3E
3FFE
7FFE
7BFE
781E
781F
781F
F80F
ENDCHAR
STARTCHAR 1EAF
ENCODING 7855
SWIDTH 576 0
DWIDTH 16 0
BBX 16 28 0 0
BITMAP
01F8
1FF0
1E00
0000
381C
3FFC
1FF8
0FE0
0000
0FF0
0FF8
0FF8
1FF8
1E78
1E38
1E3C
1C3C
3C3C
3C3C
3C3C
3C3E
3FFE
7FFE
7BFE
781E
781F
781F
F80F
ENDCHAR
STARTCHAR 1EB0
ENCODING 7856
SWIDTH 576 0
DWIDTH 16 0
BBX 16 28 0 0
BITMAP
1E00
1FF0
03F8
0000
381C
3FFC
1FF8
0FE0
0000
0FF0
0FF8
0FF8
1FF8
1E78
1E38
1E3C
1C3C
3C3C
3C3C
3C3C
3C3E
3FFE
7FFE
7BFE
781E
781F
781F
F80F
ENDCHAR
STARTCHAR 1EB1
ENCODING 7857
SWIDTH 576 0
DWIDTH 16 0
BBX 16 28 0 0
BITMAP
1E00
1FF0
03F8
0000
381C
3FFC
1FF8
0FE0
0000
0FF0
0FF8
0FF8
1FF8
1E78
1E38
1E3C
1C3C
3C3C
3C3C
3C3C
3C3E
3FFE
7FFE
7BFE
781E
781F
781F
F80F
ENDCHAR
STARTCHAR 1EB2
ENCODING 7858
SWIDTH 576 0
DWIDTH 16 0
BBX 16 28 0 0
BITMAP
03E0
0260
00C0
0080
381C
3FFC
1FF8
0FE0
0000
0FF0
0FF8
0FF8
1FF8
1E78
1E38
1E3C
1C3C
3C3C
3C3C
3C3C
3C3E
3FFE
7FFE
7BFE
781E
781F
781F
F80F
ENDCHAR
STARTCHAR 1EB3
ENCODING 7859
SWIDTH 576 0
DWIDTH 16 0
BBX 16 28 0 0
BITMAP
03E0
0260
00C0
0080
381C
3FFC
1FF8
0FE0
0000
0FF0
0FF8
0FF8
1FF8
1E78
1E38
1E3C
1C3C
3C3C
3C3C
3C3C
3C3E
3FFE
7FFE
7BFE
781E
781F
781F
F80F
ENDCHAR
STARTCHAR 1EB4
ENCODING 7860
SWIDTH 576 0
DWIDTH 16 0
BBX 16 29 0 0
BITMAP
0600
1FCC
3DFC
3030
0000
381C
3FFC
1FF8
0FE0
0000
0FF0
0FF8
0FF8
1FF8
1E78
1E38
1E3C
1C3C
3C3C
3C3C
3C3C
3C3E
3FFE
7FFE
7BFE
781E
781F
781F
F80F
ENDCHAR
STARTCHAR 1EB5
ENCODING 7861
SWIDTH 576 0
DWIDTH 16 0
BBX 16 29 0 0
BITMAP
0600
1FCC
3DFC
3030
0000
381C
3FFC
1FF8
0FE0
0000
0FF0
0FF8
0FF8
1FF8
1E78
1E38
1E3C
1C3C
3C3C
3C3C
3C3C
3C3E
3FFE
7FFE
7BFE
781E
781F
781F
F80F
ENDCHAR
STARTCHAR 1EB6
ENCODING 7862
SWIDTH 576 0
DWIDTH 16 0
BBX 16 27 0 -3
BITMAP
381C
3FFC
1FF8
0FE0
0000
0FF0
0FF8
0FF8
1FF8
1E78
1E38
1E3C
1C3C
3C3C
3C3C
3C3C
3C3E
3FFE
7FFE
7BFE
781E
781F
781F
F80F
0000
03C0
03C0
ENDCHAR
STARTCHAR 1EB7
ENCODING 7863
SWIDTH 576 0
DWIDTH 16 0
BBX 16 27 0 -3
BITMAP
381C
3FFC
1FF8
0FE0
0000
0FF0
0FF8
0FF8
1FF8
1E78
1E38
1E3C
1C3C
3C3C
3C3C
3C3C
3C3E
3FFE
7FFE
7BFE
781E
781F
781F
F80F
0000
03C0
03C0
ENDCHAR
STARTCHAR 1EB8
ENCODING 7864
SWIDTH 540 0
DWIDTH 15 0
BBX 13 22 1 -3
BITMAP
FFE0
FFF0
FFF8
FFF8
F078
F000
F000
F000
FFC0
FFC0
FFC0
F000
F000
F000
F078
FFF8
FFF8
FFF0
FFE0
0000
0F80
0F80
ENDCHAR
STARTCHAR 1EB9
ENCODING 7865
SWIDTH 540 0
DWIDTH 15 0
BBX 13 22 1 -3
BITMAP
FFE0
FFF0
FFF8
FFF8
F078
F000
F000
F000
FFC0
FFC0
FFC0
F000
F000
F000
F078
FFF8
FFF8
FFF0
FFE0
0000
0F80
0F80
ENDCHAR
STARTCHAR 1EBA
ENCODING 7866
SWIDTH 540 0
DWIDTH 15 0
BBX 13 25 1 0
BITMAP
0F00
1F80
0300
0600
0600
0000
FFE0
FFF0
FFF8
FFF8
F078
F000
F000
F000
FFC0
FFC0
FFC0
F000
F000
F000
F078
FFF8
FFF8
FFF0
FFE0
ENDCHAR
STARTCHAR 1EBB
ENCODING 7867
SWIDTH 540 0
DWIDTH 15 0
BBX 13 25 1 0
BITMAP
0F00
1F80
0300
0600
0600
0000
FFE0
FFF0
FFF8
FFF8
F078
F000
F000
F000
FFC0
FFC0
FFC0
F000
F000
F000
F078
FFF8
FFF8
FFF0
FFE0
ENDCHAR
STARTCHAR 1EBC
ENCODING 7868
SWIDTH 540 0
DWIDTH 15 0
BBX 13 24 1 0
BITMAP
3C00
FFE0
E3E0
8000
0000
FFE0
FFF0
FFF8
FFF8
F078
F000
F000
F000
FFC0
FFC0
FFC0
F000
F000
F000
F078
FFF8
FFF8
FFF0
FFE0
ENDCHAR
STARTCHAR 1EBD
ENCODING 7869
SWIDTH 540 0
DWIDTH 15 0
BBX 13 24 1 0
BITMAP
3C00
FFE0
E3E0
8000
0000
FFE0
FFF0
FFF8
FFF8
F078
F000
F000
F000
FFC0
FFC0
FFC0
F000
F000
F000
F078
FFF8
FFF8
FFF0
FFE0
ENDCHAR
STARTCHAR 1EBE
ENCODING 7870
SWIDTH 540 0
DWIDTH 15 0
BBX 13 28 1 0
BITMAP
07E0
7FC0
7C00
0000
3FC0
7FE0
E0E0
C060
0000
FFE0
FFF0
FFF8
FFF8
F078
F000
F000
F000
FFC0
FFC0
FFC0
F000
F000
F000
F078
FFF8
FFF8
FFF0
FFE0
ENDCHAR
STARTCHAR 1EBF
ENCODING 7871
SWIDTH 540 0
DWIDTH 15 0
BBX 13 28 1 0
BITMAP
07E0
7FC0
7C00
0000
3FC0
7FE0
E0E0
C060
0000
FFE0
FFF0
FFF8
FFF8
F078
F000
F000
F000
FFC0
FFC0
FFC0
F000
F000
F000
F078
FFF8
FFF8
FFF0
FFE0
ENDCHAR
STARTCHAR 1EC0
ENCODING 7872
SWIDTH 540 0
DWIDTH 15 0
BBX 13 28 1 0
BITMAP
7800
7FC0
07E0
0000
3FC0
7FE0
E0E0
C060
0000
FFE0
FFF0
FFF8
FFF8
F078
F000
F000
F000
FFC0
FFC0
FFC0
F000
F000
F000
F078
FFF8
FFF8
FFF0
FFE0
ENDCHAR
STARTCHAR 1EC1
ENCODING 7873
SWIDTH 540 0
DWIDTH 15 0
BBX 13 28 1 0
BITMAP
7800
7FC0
07E0
0000
3FC0
7FE0
E0E0
C060
0000
FFE0
FFF0
FFF8
FFF8
F078
F000
F000
F000
FFC0
FFC0
FFC0
F000
F000
F000
F078
FFF8
FFF8
FFF0
FFE0
ENDCHAR
STARTCHAR 1EC2
ENCODING 7874
SWIDTH 540 0
DWIDTH 15 0
BBX 13 30 1 0
BITMAP
0F00
0F80
1B00
0700
0600
0000
3FC0
7FE0
E0E0
C060
0000
FFE0
FFF0
FFF8
FFF8
F078
F000
F000
F000
FFC0
FFC0
FFC0
F000
F000
F000
F078
FFF8
FFF8
FFF0
FFE0
ENDCHAR
STARTCHAR 1EC3
ENCODING 7875
SWIDTH 540 0
DWIDTH 15 0
BBX 13 30 1 0
BITMAP
0F00
0F80
1B00
0700
0600
0000
3FC0
7FE0
E0E0
C060
0000
FFE0
FFF0
FFF8
FFF8
F078
F000
F000
F000
FFC0
FFC0
FFC0
F000
F000
F000
F078
FFF8
FFF8
FFF0
FFE0
ENDCHAR
STARTCHAR 1EC4
ENCODING 7876
SWIDTH 540 0
DWIDTH 15 0
BBX 13 29 1 0
BITMAP
1800
7F20
E7E0
C1C0
0000
3FC0
7FE0
E0E0
C060
0000
FFE0
FFF0
FFF8
FFF8
F078
F000
F000
F000
FFC0
FFC0
FFC0
F000
F000
F000
F078
FFF8
FFF8
FFF0
FFE0
ENDCHAR
STARTCHAR 1EC5
ENCODING 7877
SWIDTH 540 0
DWIDTH 15 0
BBX 13 29 1 0
BITMAP
1800
7F20
E7E0
C1C0
0000
3FC0
7FE0
E0E0
C060
0000
FFE0
FFF0
FFF8
FFF8
F078
F000
F000
F000
FFC0
FFC0
FFC0
F000
F000
F000
F078
FFF8
FFF8
FFF0
FFE0
ENDCHAR
STARTCHAR 1EC6
ENCODING 7878
SWIDTH 540 0
DWIDTH 15 0
BBX 13 27 1 -3
BITMAP
3FC0
7FE0
E0E0
C060
0000
FFE0
FFF0
FFF8
FFF8
F078
F000
F000
F000
FFC0
FFC0
FFC0
F000
F000
F000
F078
FFF8
FFF8
FFF0
FFE0
0000
0F80
0F80
ENDCHAR
STARTCHAR 1EC7
ENCODING 7879
SWIDTH 540 0
DWIDTH 15 0
BBX 13 27 1 -3
BITMAP
3FC0
7FE0
E0E0
C060
0000
FFE0
FFF0
FFF8
FFF8
F078
F000
F000
F000
FFC0
FFC0
FFC0
F000
F000
F000
F078
FFF8
FFF8
FFF0
FFE0
0000
0F80
0F80
ENDCHAR
STARTCHAR 1EC8
ENCODING 7880
SWIDTH 216 0
DWIDTH 6 0
BBX 5 25 1 0
BITMAP
F0
F8
30
20
20
00
F0
F0
F0
F0
F0
F0
F0
F0
F0
F0
F0
F0
F0
F0
F0
F0
F0
F0
F0
ENDCHAR
STARTCHAR 1EC9
ENCODING 7881
SWIDTH 216 0
DWIDTH 6 0
BBX 5 25 1 0
BITMAP
F0
F8
30
20
20
00
F0
F0
F0
F0
F0
F0
F0
F0
F0
F0
F0
F0
F0
F0
F0
F0
F0
F0
F0
ENDCHAR
STARTCHAR 1ECA
ENCODING 7882
SWIDTH 216 0
DWIDTH 6 0
BBX 4 22 1 -3
BITMAP
F0
F0
F0
F0
F0
F0
F0
F0
F0
F0
F0
F0
F0
F0
F0
F0
F0
F0
F0
00
F0
F0
ENDCHAR
STARTCHAR 1ECB
ENCODING 7883
SWIDTH 216 0
DWIDTH 6 0
BBX 4 22 1 -3
BITMAP
F0
F0
F0
F0
F0
F0
F0
F0
F0
F0
F0
F0
F0
F0
F0
F0
F0
F0
F0
00
F0
F0
ENDCHAR
STARTCHAR 1ECC
ENCODING 7884
SWIDTH 612 0
DWIDTH 17 0
BBX 15 22 1 -3
BITMAP
3FFC
7FFC
FFFE
FFFE
F81E
F01E
F01E
F01E
F01E
F01E
F01E
F01E
F01E
F01E
F83E
FFFE
7FFE
7FFC
3FF8
0000
07C0
07C0
ENDCHAR
STARTCHAR 1ECD
ENCODING 7885
SWIDTH 612 0
DWIDTH 17 0
BBX 15 22 1 -3
BITMAP
3FFC
7FFC
FFFE
FFFE
F81E
F01E
F01E
F01E
F01E
F01E
F01E
F01E
F01E
F01E
F83E
FFFE
7FFE
7FFC
3FF8
0000
07C0
07C0
ENDCHAR
STARTCHAR 1ECE
ENCODING 7886
SWIDTH 612 0
DWIDTH 17 0
BBX 15 25 1 0
BITMAP
03C0
07C0
00C0
0180
0180
0000
3FFC
7FFC
FFFE
FFFE
F81E
F01E
F01E
F01E
F01E
F01E
F01E
F01E
F01E
F01E
F83E
FFFE
7FFE
7FFC
3FF8
ENDCHAR
STARTCHAR 1ECF
ENCODING 7887
SWIDTH 612 0
DWIDTH 17 0
BBX 15 25 1 0
BITMAP
03C0
07C0
00C0
0180
0180
0000
3FFC
7FFC
FFFE
FFFE
F81E
F01E
F01E
F01E
F01E
F01E
F01E
F01E
F01E
F01E
F83E
FFFE
7FFE
7FFC
3FF8
ENDCHAR
STARTCHAR 1ED0
ENCODING 7888
SWIDTH 612 0
DWIDTH 17 0
BBX 15 28 1 0
BITMAP
01F8
1FF0
1E00
0000
0FF0
1FF8
3838
3018
0000
3FFC
7FFC
FFFE
FFFE
F81E
F01E
F01E
F01E
F01E
F01E
F01E
F01E
F01E
F01E
F83E
FFFE
7FFE
7FFC
3FF8
ENDCHAR
STARTCHAR 1ED1
ENCODING 7889
SWIDTH 612 0
DWIDTH 17 0
BBX 15 28 1 0
BITMAP
01F8
1FF0
1E00
0000
0FF0
1FF8
3838
3018
0000
3FFC
7FFC
FFFE
FFFE
F81E
F01E
F01E
F01E
F01E
F01E
F01E
F01E
F01E
F01E
F83E
FFFE
7FFE
7FFC
3FF8
ENDCHAR
STARTCHAR 1ED2
ENCODING 7890
SWIDTH 612 0
DWIDTH 17 0
BBX 15 28 1 0
BITMAP
1E00
1FF0
03F8
0000
0FF0
1FF8
3838
3018
0000
3FFC
7FFC
FFFE
FFFE
F81E
F01E
F01E
F01E
F01E
F01E
F01E
F01E
F01E
F01E
F83E
FFFE
7FFE
7FFC
3FF8
ENDCHAR
STARTCHAR 1ED3
ENCODING 7891
SWIDTH 612 0
DWIDTH 17 0
BBX 15 28 1 0
BITMAP
1E00
1FF0
03F8
0000
0FF0
1FF8
3838
3018
0000
3FFC
7FFC
FFFE
FFFE
F81E
F01E
F01E
F01E
F01E
F01E
F01E
F01E
F01E
F01E
F83E
FFFE
7FFE
7FFC
3FF8
ENDCHAR
STARTCHAR 1ED4
ENCODING 7892
SWIDTH 612 0
DWIDTH 17 0
BBX 15 30 1 0
BITMAP
03C0
07C0
06C0
0180
0180
0000
0FF0
1FF8
3838
3018
0000
3FFC
7FFC
FFFE
FFFE
F81E
F01E
F01E
F01E
F01E
F01E
F01E
F01E
F01E
F01E
F83E
FFFE
7FFE
7FFC
3FF8
ENDCHAR
STARTCHAR 1ED5
ENCODING 7893
SWIDTH 612 0
DWIDTH 17 0
BBX 15 30 1 0
BITMAP
03C0
07C0
06C0
0180
0180
0000
0FF0
1FF8
3838
3018
0000
3FFC
7FFC
FFFE
FFFE
F81E
F01E
F01E
F01E
F01E
F01E
F01E
F01E
F01E
F01E
F83E
FFFE
7FFE
7FFC
3FF8
ENDCHAR
STARTCHAR 1ED6
ENCODING 7894
SWIDTH 612 0
DWIDTH 17 0
BBX 15 29 1 0
BITMAP
0600
1FD8
3BF8
3070
0000
0FF0
1FF8
3838
3018
0000
3FFC
7FFC
FFFE
FFFE
F81E
F01E
F01E
F01E
F01E
F01E
F01E
F01E
F01E
F01E
F83E
FFFE
7FFE
7FFC
3FF8
ENDCHAR
STARTCHAR 1ED7
ENCODING 7895
SWIDTH 612 0
DWIDTH 17 0
BBX 15 29 1 0
BITMAP
0600
1FD8
3BF8
3070
0000
0FF0
1FF8
3838
3018
0000
3FFC
7FFC
FFFE
FFFE
F81E
F01E
F01E
F01E
F01E
F01E
F01E
F01E
F01E
F01E
F83E
FFFE
7FFE
7FFC
3FF8
ENDCHAR
STARTCHAR 1ED8
ENCODING 7896
SWIDTH 612 0
DWIDTH 17 0
BBX 15 27 1 -3
BITMAP
0FF0
1FF8
3838
3018
0000
3FFC
7FFC
FFFE
FFFE
F81E
F01E
F01E
F01E
F01E
F01E
F01E
F01E
F01E
F01E
F83E
FFFE
7FFE
7FFC
3FF8
0000
07C0
07C0
ENDCHAR
STARTCHAR 1ED9
ENCODING 7897
SWIDTH 612 0
DWIDTH 17 0
BBX 15 27 1 -3
BITMAP
0FF0
1FF8
3838
3018
0000
3FFC
7FFC
FFFE
FFFE
F81E
F01E
F01E
F01E
F01E
F01E
F01E
F01E
F01E
F01E
F83E
FFFE
7FFE
7FFC
3FF8
0000
07C0
07C0
ENDCHAR
STARTCHAR 1EDA
ENCODING 7898
SWIDTH 612 0
DWIDTH 17 0
BBX 16 23 1 0
BITMAP
1FF8
1F80
1003
0007
3FFF
7FFE
FFFE
FFFE
F81E
F01E
F01E
F01E
F01E
F01E
F01E
F01E
F01E
F01E
F83E
FFFE
7FFE
7FFC
3FF8
ENDCHAR
STARTCHAR 1EDB
ENCODING 7899
SWIDTH 612 0
DWIDTH 17 0
BBX 16 23 1 0
BITMAP
1FF8
1F80
1003
0007
3FFF
7FFE
FFFE
FFFE
F81E
F01E
F01E
F01E
F01E
F01E
F01E
F01E
F01E
F01E
F83E
FFFE
7FFE
7FFC
3FF8
ENDCHAR
STARTCHAR 1EDC
ENCODING 7900
SWIDTH 612 0
DWIDTH 17 0
BBX 16 23 1 0
BITMAP
3F00
1FF0
0003
0007
3FFF
7FFE
FFFE
FFFE
F81E
F01E
F01E
F01E
F01E
F01E
F01E
F01E
F01E
F01E
F83E
FFFE
7FFE
7FFC
3FF8
ENDCHAR
STARTCHAR 1EDD
ENCODING 7901
SWIDTH 612 0
DWIDTH 17 0
BBX 16 23 1 0
BITMAP
3F00
1FF0
0003
0007
3FFF
7FFE
FFFE
FFFE
F81E
F01E
F01E
F01E
F01E
F01E
F01E
F01E
F01E
F01E
F83E
FFFE
7FFE
7FFC
3FF8
ENDCHAR
STARTCHAR 1EDE
ENCODING 7902
SWIDTH 612 0
DWIDTH 17 0
BBX 16 25 1 0
BITMAP
03C0
07C0
00C0
0180
0183
0007
3FFF
7FFE
FFFE
FFFE
F81E
F01E
F01E
F01E
F01E
F01E
F01E
F01E
F01E
F01E
F83E
FFFE
7FFE
7FFC
3FF8
ENDCHAR
STARTCHAR 1EDF
ENCODING 7903
SWIDTH 612 0
DWIDTH 17 0
BBX 16 25 1 0
BITMAP
03C0
07C0
00C0
0180
0183
0007
3FFF
7FFE
FFFE
FFFE
F81E
F01E
F01E
F01E
F01E
F01E
F01E
F01E
F01E
F01E
F83E
FFFE
7FFE
7FFC
3FF8
ENDCHAR
STARTCHAR 1EE0
ENCODING 7904
SWIDTH 612 0
DWIDTH 17 0
BBX 16 25 1 1
BITMAP
0F88
3FF8
30F8
0000
0003
0007
3FFF
7FFE
FFFE
FFFE
F81E
F01E
F01E
F01E
F01E
F01E
F01E
F01E
F01E
F01E
F83E
FFFE
7FFE
7FFC
3FF8
ENDCHAR
STARTCHAR 1EE1
ENCODING 7905
SWIDTH 612 0
DWIDTH 17 0
BBX 16 25 1 1
BITMAP
0F88
3FF8
30F8
0000
0003
0007
3FFF
7FFE
FFFE
FFFE
F81E
F01E
F01E
F01E
F01E
F01E
F01E
F01E
F01E
F01E
F83E
FFFE
7FFE
7FFC
3FF8
ENDCHAR
STARTCHAR 1EE2
ENCODING 7906
SWIDTH 612 0
DWIDTH 17 0
BBX 16 24 1 -3
BITMAP
0003
0007
3FFF
7FFE
FFFE
FFFE
F81E
F01E
F01E
F01E
F01E
F01E
F01E
F01E
F01E
F01E
F83E
FFFE
7FFE
7FFC
3FF8
0000
07C0
07C0
ENDCHAR
STARTCHAR 1EE3
ENCODING 7907
SWIDTH 612 0
DWIDTH 17 0
BBX 16 24 1 -3
BITMAP
0003
0007
3FFF
7FFE
FFFE
FFFE
F81E
F01E
F01E
F01E
F01E
F01E
F01E
F01E
F01E
F01E
F83E
FFFE
7FFE
7FFC
3FF8
0000
07C0
07C0
ENDCHAR
STARTCHAR 1EE4
ENCODING 7908
SWIDTH 612 0
DWIDTH 17 0
BBX 15 22 1 -3
BITMAP
F01E
F01E
F01E
F01E
F01E
F01E
F01E
F01E
F01E
F01E
F01E
F01E
F01E
F01E
F83E
FFFE
7FFE
7FFC
3FF8
0000
07C0
07C0
ENDCHAR
STARTCHAR 1EE5
ENCODING 7909
SWIDTH 612 0
DWIDTH 17 0
BBX 15 22 1 -3
BITMAP
F01E
F01E
F01E
F01E
F01E
F01E
F01E
F01E
F01E
F01E
F01E
F01E
F01E
F01E
F83E
FFFE
7FFE
7FFC
3FF8
0000
07C0
07C0
ENDCHAR
STARTCHAR 1EE6
ENCODING 7910
SWIDTH 612 0
DWIDTH 17 0
BBX 15 25 1 0
BITMAP
07C0
07C0
0180
0180
0180
0000
F01E
F01E
F01E
F01E
F01E
F01E
F01E
F01E
F01E
F01E
F01E
F01E
F01E
F01E
F83E
FFFE
7FFE
7FFC
3FF8
ENDCHAR
STARTCHAR 1EE7
ENCODING 7911
SWIDTH 612 0
DWIDTH 17 0
BBX 15 25 1 0
BITMAP
07C0
07C0
0180
0180
0180
0000
F01E
F01E
F01E
F01E
F01E
F01E
F01E
F01E
F01E
F01E
F01E
F01E
F01E
F01E
F83E
FFFE
7FFE
7FFC
3FF8
ENDCHAR
STARTCHAR 1EE8
ENCODING 7912
SWIDTH 612 0
DWIDTH 17 0
BBX 16 23 1 0
BITMAP
1FF8
1F80
1003
0007
F01F
F01C
F01E
F01E
F01E
F01E
F01E
F01E
F01E
F01E
F01E
F01E
F01E
F01E
F83E
FFFE
7FFE
7FFC
3FF8
ENDCHAR
STARTCHAR 1EE9
ENCODING 7913
SWIDTH 612 0
DWIDTH 17 0
BBX 16 23 1 0
BITMAP
1FF8
1F80
1003
0007
F01F
F01C
F01E
F01E
F01E
F01E
F01E
F01E
F01E
F01E
F01E
F01E
F01E
F01E
F83E
FFFE
7FFE
7FFC
3FF8
ENDCHAR
STARTCHAR 1EEA
ENCODING 7914
SWIDTH 612 0
DWIDTH 17 0
BBX 16 23 1 0
BITMAP
3F00
1FF0
0003
0007
F01F
F01C
F01E
F01E
F01E
F01E
F01E
F01E
F01E
F01E
F01E
F01E
F01E
F01E
F83E
FFFE
7FFE
7FFC
3FF8
ENDCHAR
STARTCHAR 1EEB
ENCODING 7915
SWIDTH 612 0
DWIDTH 17 0
BBX 16 23 1 0
BITMAP
3F00
1FF0
0003
0007
F01F
F01C
F01E
F01E
F01E
F01E
F01E
F01E
F01E
F01E
F01E
F01E
F01E
F01E
F83E
FFFE
7FFE
7FFC
3FF8
ENDCHAR
STARTCHAR 1EEC
ENCODING 7916
SWIDTH 612 0
DWIDTH 17 0
BBX 16 25 1 0
BITMAP
07C0
07C0
00C0
0180
0183
0007
F01F
F01C
F01E
F01E
F01E
F01E
F01E
F01E
F01E
F01E
F01E
F01E
F01E
F01E
F83E
FFFE
7FFE
7FFC
3FF8
ENDCHAR
STARTCHAR 1EED
ENCODING 7917
SWIDTH 612 0
DWIDTH 17 0
BBX 16 25 1 0
BITMAP
07C0
07C0
00C0
0180
0183
0007
F01F
F01C
F01E
F01E
F01E
F01E
F01E
F01E
F01E
F01E
F01E
F01E
F01E
F01E
F83E
FFFE
7FFE
7FFC
3FF8
ENDCHAR
STARTCHAR 1EEE
ENCODING 7918
SWIDTH 612 0
DWIDTH 17 0
BBX 16 25 1 1
BITMAP
0F88
3FF8
30F8
0000
0003
0007
F01F
F01C
F01E
F01E
F01E
F01E
F01E
F01E
F01E
F01E
F01E
F01E
F01E
F01E
F83E
FFFE
7FFE
7FFC
3FF8
ENDCHAR
STARTCHAR 1EEF
ENCODING 7919
SWIDTH 612 0
DWIDTH 17 0
BBX 16 25 1 1
BITMAP
0F88
3FF8
30F8
0000
0003
0007
F01F
F01C
F01E
F01E
F01E
F01E
F01E
F01E
F01E
F01E
F01E
F01E
F01E
F01E
F83E
FFFE
7FFE
7FFC
3FF8
ENDCHAR
STARTCHAR 1EF0
ENCODING 7920
SWIDTH 612 0
DWIDTH 17 0
BBX 16 24 1 -3
BITMAP
0003
0007
F01F
F01C
F01E
F01E
F01E
F01E
F01E
F01E
F01E
F01E
F01E
F01E
F01E
F01E
F83E
FFFE
7FFE
7FFC
3FF8
0000
07C0
07C0
ENDCHAR
STARTCHAR 1EF1
ENCODING 7921
SWIDTH 612 0
DWIDTH 17 0
BBX 16 24 1 -3
BITMAP
0003
0007
F01F
F01C
F01E
F01E
F01E
F01E
F01E
F01E
F01E
F01E
F01E
F01E
F01E
F01E
F83E
FFFE
7FFE
7FFC
3FF8
0000
07C0
07C0
ENDCHAR
STARTCHAR 1EF2
ENCODING 7922
SWIDTH 468 0
DWIDTH 13 0
BBX 13 23 0 0
BITMAP
3F00
3FF0
0010
0000
F078
F8F8
F8F8
78F0
7DF0
3DE0
3DE0
1FC0
1FC0
0FC0
0F80
0F80
0F80
0F80
0F80
0F80
0F80
0F80
0F80
ENDCHAR
STARTCHAR 1EF3
ENCODING 7923
SWIDTH 468 0
DWIDTH 13 0
BBX 13 23 0 0
BITMAP
3F00
3FF0
0010
0000
F078
F8F8
F8F8
78F0
7DF0
3DE0
3DE0
1FC0
1FC0
0FC0
0F80
0F80
0F80
0F80
0F80
0F80
0F80
0F80
0F80
ENDCHAR
STARTCHAR 1EF4
ENCODING 7924
SWIDTH 468 0
DWIDTH 13 0
BBX 13 22 0 -3
BITMAP
F078
F8F8
F8F8
78F0
7DF0
3DE0
3DE0
1FC0
1FC0
0FC0
0F80
0F80
0F80
0F80
0F80
0F80
0F80
0F80
0F80
0000
0F80
0F80
ENDCHAR
STARTCHAR 1EF5
ENCODING 7925
SWIDTH 468 0
DWIDTH 13 0
BBX 13 22 0 -3
BITMAP
F078
F8F8
F8F8
78F0
7DF0
3DE0
3DE0
1FC0
1FC0
0FC0
0F80
0F80
0F80
0F80
0F80
0F80
0F80
0F80
0F80
0000
0F80
0F80
ENDCHAR
STARTCHAR 1EF6
ENCODING 7926
SWIDTH 468 0
DWIDTH 13 0
BBX 13 25 0 0
BITMAP
0F80
0F80
0300
0300
0300
0000
F078
F8F8
F8F8
78F0
7DF0
3DE0
3DE0
1FC0
1FC0
0FC0
0F80
0F80
0F80
0F80
0F80
0F80
0F80
0F80
0F80
ENDCHAR
STARTCHAR 1EF7
ENCODING 7927
SWIDTH 468 0
DWIDTH 13 0
BBX 13 25 0 0
BITMAP
0F80
0F80
0300
0300
0300
0000
F078
F8F8
F8F8
78F0
7DF0
3DE0
3DE0
1FC0
1FC0
0FC0
0F80
0F80
0F80
0F80
0F80
0F80
0F80
0F80
0F80
ENDCHAR
STARTCHAR 1EF8
ENCODING 7928
SWIDTH 468 0
DWIDTH 13 0
BBX 13 25 0 0
BITMAP
0C00
3FB0
73F0
4060
0000
0000
F078
F8F8
F8F8
78F0
7DF0
3DE0
3DE0
1FC0
1FC0
0FC0
0F80
0F80
0F80
0F80
0F80
0F80
0F80
0F80
0F80
ENDCHAR
STARTCHAR 1EF9
ENCODING 7929
SWIDTH 468 0
DWIDTH 13 0
BBX 13 25 0 0
BITMAP
0C00
3FB0
73F0
4060
0000
0000
F078
F8F8
F8F8
78F0
7DF0
3DE0
3DE0
1FC0
1FC0
0FC0
0F80
0F80
0F80
0F80
0F80
0F80
0F80
0F80
0F80
ENDCHAR
STARTCHAR 2013
ENCODING 8211
SWIDTH 468 0
DWIDTH 13 0
BBX 12 3 1 8
BITMAP
FFF0
FFF0
FFF0
ENDCHAR
STARTCHAR 2014
ENCODING 8212
SWIDTH 972 0
DWIDTH 27 0
BBX 26 3 1 8
BITMAP
FFFFFFC0
FFFFFFC0
FFFFFFC0
ENDCHAR
STARTCHAR 2018
ENCODING 8216
SWIDTH 180 0
DWIDTH 5 0
BBX 4 6 1 13
BITMAP
70
E0
E0
C0
C0
C0
ENDCHAR
STARTCHAR 2019
ENCODING 8217
SWIDTH 180 0
DWIDTH 5 0
BBX 4 6 1 13
BITMAP
70
70
70
70
E0
E0
ENDCHAR
STARTCHAR 201A
ENCODING 8218
SWIDTH 144 0
DWIDTH 4 0
BBX 5 7 -1 -3
BITMAP
38
38
38
38
70
70
E0
ENDCHAR
STARTCHAR 201C
ENCODING 8220
SWIDTH 360 0
DWIDTH 10 0
BBX 8 6 1 13
BITMAP
77
E7
EE
CE
CE
CE
ENDCHAR
STARTCHAR 201D
ENCODING 8221
SWIDTH 360 0
DWIDTH 10 0
BBX 9 6 1 13
BITMAP
7380
7380
7380
7300
E700
EE00
ENDCHAR
STARTCHAR 201E
ENCODING 8222
SWIDTH 360 0
DWIDTH 10 0
BBX 9 7 1 -3
BITMAP
7300
7380
7380
7380
7700
EE00
CE00
ENDCHAR
STARTCHAR 2020
ENCODING 8224
SWIDTH 504 0
DWIDTH 14 0
BBX 13 19 1 0
BITMAP
0700
0700
0700
0700
0700
FFF8
FFF8
FFF8
0700
0700
0700
0700
0700
0700
0700
0700
0700
0700
0700
ENDCHAR
STARTCHAR 2021
ENCODING 8225
SWIDTH 504 0
DWIDTH 14 0
BBX 13 19 1 0
BITMAP
0700
0700
0700
0700
0700
FFF8
FFF8
FFF8
0700
0700
0700
FFF8
FFF8
0700
0700
0700
0700
0700
0700
ENDCHAR
STARTCHAR 2022
ENCODING 8226
SWIDTH 216 0
DWIDTH 6 0
BBX 5 5 1 8
BITMAP
F8
F8
F8
F8
F8
ENDCHAR
STARTCHAR 2026
ENCODING 8230
SWIDTH 504 0
DWIDTH 14 0
BBX 12 3 1 0
BITMAP
EF70
EF70
EF70
ENDCHAR
STARTCHAR 2030
ENCODING 8240
SWIDTH 864 0
DWIDTH 24 0
BBX 23 19 1 0
BITMAP
FE3800
FE3800
CE7000
CE7000
FEE000
FCE000
01C000
01C000
038000
038000
078000
070000
077C7C
0EFEFE
0EFEFE
1CE6CE
1CE6CE
38FEFE
387EFC
ENDCHAR
STARTCHAR 2039
ENCODING 8249
SWIDTH 252 0
DWIDTH 7 0
BBX 6 12 1 3
BITMAP
04
0C
1C
78
F0
C0
C0
F0
38
1C
0C
04
ENDCHAR
STARTCHAR 203A
ENCODING 8250
SWIDTH 252 0
DWIDTH 7 0
BBX 6 10 1 4
BITMAP
80
E0
70
38
1C
1C
38
F0
E0
80
ENDCHAR
STARTCHAR 2044
ENCODING 8260
SWIDTH 324 0
DWIDTH 9 0
BBX 11 19 -1 0
BITMAP
0060
00E0
00C0
01C0
0180
0180
0380
0300
0700
0600
0E00
0C00
1C00
1800
3800
3000
7000
6000
E000
ENDCHAR
STARTCHAR 20AB
ENCODING 8363
SWIDTH 468 0
DWIDTH 13 0
BBX 12 19 0 0
BITMAP
7FE0
7FF0
7FF0
70F0
7070
7070
FC70
FC70
FC70
7070
7070
70F0
7FF0
7FF0
7FE0
0000
7FF0
7FF0
7FF0
ENDCHAR
STARTCHAR 20AC
ENCODING 8364
SWIDTH 576 0
DWIDTH 16 0
BBX 15 19 1 0
BITMAP
3FF8
3FFC
3FFE
3FFE
3C3E
3C00
FF80
FF80
FF80
3C00
FF80
FF80
FF80
3C00
3C3E
3FFE
3FFC
3FFC
3FF8
ENDCHAR
STARTCHAR 2122
ENCODING 8482
SWIDTH 612 0
DWIDTH 17 0
BBX 17 9 0 10
BITMAP
FEF700
DEF780
18F780
18DF80
18DF80
18DF80
18DB80
18C380
18C380
ENDCHAR
STARTCHAR 215B
ENCODING 8539
SWIDTH 648 0
DWIDTH 18 0
BBX 16 19 1 0
BITMAP
7830
F870
F860
B860
38E0
38C0
39C0
3980
3B80
033E
077F
0677
0E63
0C77
1C7F
1863
3873
307F
703E
ENDCHAR
STARTCHAR 215C
ENCODING 8540
SWIDTH 684 0
DWIDTH 19 0
BBX 18 19 1 0
BITMAP
FC1C00
7C1800
0C3800
7C3000
7C7000
0C6000
0C6000
7CE000
FCC000
01DF80
019F80
03B9C0
0339C0
0739C0
061F80
0E39C0
0C39C0
1C1F80
181F80
ENDCHAR
STARTCHAR 215D
ENCODING 8541
SWIDTH 684 0
DWIDTH 19 0
BBX 18 19 1 0
BITMAP
FC1C00
F81800
C03800
FC3000
FC7000
0C6000
0C6000
7CE000
FCC000
01DF80
019F80
03B9C0
0339C0
0739C0
061F80
0E39C0
0C39C0
1C1F80
181F80
ENDCHAR
STARTCHAR 215E
ENCODING 8542
SWIDTH 648 0
DWIDTH 18 0
BBX 16 19 1 0
BITMAP
FC30
7C70
1C60
18E0
18C0
39C0
3980
3380
7300
073E
067F
0E77
0C63
1C77
187F
3863
3863
307F
703E
ENDCHAR
STARTCHAR 2190
ENCODING 8592
SWIDTH 396 0
DWIDTH 11 0
BBX 10 9 1 3
BITMAP
3800
7000
E000
FFC0
FFC0
FFC0
F000
7800
3800
ENDCHAR
STARTCHAR 2191
ENCODING 8593
SWIDTH 360 0
DWIDTH 10 0
BBX 9 11 1 3
BITMAP
3C00
7E00
FF00
DF80
DD80
1C00
1C00
1C00
1C00
1C00
1C00
ENDCHAR
STARTCHAR 2192
ENCODING 8594
SWIDTH 396 0
DWIDTH 11 0
BBX 10 9 1 3
BITMAP
0700
0380
01C0
FFC0
FFC0
FFC0
0380
0700
0600
ENDCHAR
STARTCHAR 2193
ENCODING 8595
SWIDTH 360 0
DWIDTH 10 0
BBX 9 11 1 3
BITMAP
1C00
1C00
1C00
1C00
1C00
1C00
DF80
FF80
FF00
7E00
3C00
ENDCHAR
STARTCHAR 2194
ENCODING 8596
SWIDTH 504 0
DWIDTH 14 0
BBX 13 9 1 3
BITMAP
38E0
7070
E038
FFF8
FFF8
FFF8
F070
78E0
38C0
ENDCHAR
STARTCHAR 2195
ENCODING 8597
SWIDTH 360 0
DWIDTH 10 0
BBX 9 14 1 3
BITMAP
3C00
7E00
FF00
DF80
DD80
1C00
1C00
1C00
1C00
DF80
FF80
FF00
7E00
3C00
ENDCHAR
STARTCHAR 2196
ENCODING 8598
SWIDTH 396 0
DWIDTH 11 0
BBX 10 9 1 3
BITMAP
3C00
7E00
FE00
F800
FC00
DE00
CF00
C7C0
4380
ENDCHAR
STARTCHAR 2197
ENCODING 8599
SWIDTH 396 0
DWIDTH 11 0
BBX 10 10 1 3
BITMAP
1E00
3F00
1F80
0FC0
1F80
3D80
7980
F180
E000
4000
ENDCHAR
STARTCHAR 2198
ENCODING 8600
SWIDTH 396 0
DWIDTH 11 0
BBX 10 10 1 3
BITMAP
4000
E000
F180
7980
3D80
1F80
0FC0
1F80
3F00
1E00
ENDCHAR
STARTCHAR 2199
ENCODING 8601
SWIDTH 396 0
DWIDTH 11 0
BBX 10 9 1 4
BITMAP
4380
C7C0
CF00
DE00
FC00
F800
FE00
7E00
3C00
ENDCHAR
STARTCHAR 220F
ENCODING 8719
SWIDTH 468 0
DWIDTH 13 0
BBX 12 19 1 0
BITMAP
FFF0
FFF0
39C0
39C0
39C0
39C0
39C0
39C0
39C0
39C0
39C0
39C0
39C0
39C0
39C0
39C0
39C0
39C0
39C0
ENDCHAR
STARTCHAR 2211
ENCODING 8721
SWIDTH 396 0
DWIDTH 11 0
BBX 10 19 1 0
BITMAP
FFC0
FFC0
E000
E000
7000
7000
3800
3800
1C00
1C00
1C00
3800
3800
7000
F000
E000
FF80
FFC0
FFC0
ENDCHAR
STARTCHAR 2212
ENCODING 8722
SWIDTH 396 0
DWIDTH 11 0
BBX 10 3 1 8
BITMAP
FFC0
FFC0
FFC0
ENDCHAR
STARTCHAR 221A
ENCODING 8730
SWIDTH 504 0
DWIDTH 14 0
BBX 21 25 1 0
BITMAP
001FF8
001FF8
003FF8
003800
003800
003800
003800
003800
003000
003000
007000
007000
007000
007000
F87000
F87000
F86000
38E000
1CE000
1CE000
1CE000
0EE000
0FE000
0FC000
07C000
ENDCHAR
STARTCHAR 2260
ENCODING 8800
SWIDTH 396 0
DWIDTH 11 0
BBX 10 11 1 4
BITMAP
0700
0700
FFC0
FFC0
FFC0
0C00
FFC0
FFC0
FFC0
3800
3800
ENDCHAR
STARTCHAR 2264
ENCODING 8804
SWIDTH 360 0
DWIDTH 10 0
BBX 9 19 1 0
BITMAP
0080
0380
0F80
3F80
FE00
F800
E000
C000
F000
FC00
7F00
1F80
0780
0180
0000
0000
FF80
FF80
FF80
ENDCHAR
STARTCHAR 2265
ENCODING 8805
SWIDTH 360 0
DWIDTH 10 0
BBX 9 19 1 0
BITMAP
8000
E000
F800
FE00
3F80
0F80
0380
0180
0780
1F80
7F00
FC00
F000
C000
0000
0000
FF80
FF80
FF80
ENDCHAR
ENDFONT
